STARTFONT 2.1
COMMENT
COMMENT Converted from OpenType font "BeVietnam-Regular.ttf" by "otf2bdf 3.0".
COMMENT
FONT -FreeType-Be Vietnam-Medium-R-Normal--28-200-100-100-P-132-ISO10646-1
SIZE 20 100 100
FONTBOUNDINGBOX 42 38 -10 -7
STARTPROPERTIES 19
FOUNDRY "FreeType"
FAMILY_NAME "Be Vietnam"
WEIGHT_NAME "Medium"
SLANT "R"
SETWIDTH_NAME "Normal"
ADD_STYLE_NAME ""
PIXEL_SIZE 28
POINT_SIZE 200
RESOLUTION_X 100
RESOLUTION_Y 100
SPACING "P"
AVERAGE_WIDTH 132
CHARSET_REGISTRY "ISO10646"
CHARSET_ENCODING "1"
FONT_ASCENT 33
FONT_DESCENT 7
COPYRIGHT "Copyright 2019 The Bevietnam Project Authors (https://github.com/bettergui/beVietnam)"
_OTF_FONTFILE "BeVietnam-Regular.ttf"
_OTF_PSNAME "BeVietnam-Regular"
ENDPROPERTIES
CHARS 445
STARTCHAR 000D
ENCODING 13
SWIDTH 576 0
DWIDTH 16 0
BBX 0 0 0 0
BITMAP
ENDCHAR
STARTCHAR 0020
ENCODING 32
SWIDTH 216 0
DWIDTH 6 0
BBX 0 0 0 0
BITMAP
ENDCHAR
STARTCHAR 0021
ENCODING 33
SWIDTH 216 0
DWIDTH 6 0
BBX 3 21 2 0
BITMAP
E0
E0
E0
E0
E0
E0
E0
E0
E0
C0
C0
C0
C0
C0
40
40
00
00
C0
E0
E0
ENDCHAR
STARTCHAR 0022
ENCODING 34
SWIDTH 504 0
DWIDTH 14 0
BBX 10 7 2 14
BITMAP
20C0
4100
C100
C300
F3C0
F1C0
61C0
ENDCHAR
STARTCHAR 0023
ENCODING 35
SWIDTH 864 0
DWIDTH 24 0
BBX 20 19 2 0
BITMAP
00C180
018180
018300
018300
018300
3FFFF0
7FFFF0
030600
030600
030600
060600
060C00
7FFFE0
FFFFE0
0E0C00
0C1C00
0C1800
0C1800
0C1800
ENDCHAR
STARTCHAR 0024
ENCODING 36
SWIDTH 540 0
DWIDTH 15 0
BBX 14 23 1 -2
BITMAP
0300
0300
1FC0
3FF0
7330
6338
6318
6318
7300
7B00
3F80
0FE0
03F8
0338
031C
E31C
631C
7318
3B38
3FF0
0FE0
0300
0300
ENDCHAR
STARTCHAR 0025
ENCODING 37
SWIDTH 792 0
DWIDTH 22 0
BBX 21 20 1 0
BITMAP
380000
7C0300
C60700
C20600
C20E00
C60C00
C61C00
7C1800
003000
003000
006000
006000
00C0E0
00C3F0
018318
018318
030218
030318
060318
0601F0
ENDCHAR
STARTCHAR 0026
ENCODING 38
SWIDTH 612 0
DWIDTH 17 0
BBX 16 20 2 0
BITMAP
0780
0FE0
1C70
3838
3838
3838
3800
1800
1C00
0E00
3F0C
739C
E1D8
C0F0
C070
C070
C0F8
E1DC
7F8E
3F07
ENDCHAR
STARTCHAR 0027
ENCODING 39
SWIDTH 288 0
DWIDTH 8 0
BBX 4 7 2 15
BITMAP
60
F0
70
10
30
20
40
ENDCHAR
STARTCHAR 0028
ENCODING 40
SWIDTH 432 0
DWIDTH 12 0
BBX 7 28 3 -6
BITMAP
02
06
0C
18
18
30
30
70
60
60
E0
E0
E0
E0
E0
E0
E0
E0
60
60
70
30
30
18
18
0C
06
02
ENDCHAR
STARTCHAR 0029
ENCODING 41
SWIDTH 468 0
DWIDTH 13 0
BBX 8 28 3 -6
BITMAP
80
60
30
30
18
1C
0C
0C
0E
06
06
06
06
07
07
06
06
06
06
0E
0C
0C
1C
18
30
60
60
80
ENDCHAR
STARTCHAR 002A
ENCODING 42
SWIDTH 504 0
DWIDTH 14 0
BBX 10 10 2 11
BITMAP
0C00
0C00
6DC0
7F80
1E00
3F00
EDC0
4C80
0C00
0C00
ENDCHAR
STARTCHAR 002B
ENCODING 43
SWIDTH 576 0
DWIDTH 16 0
BBX 11 11 3 3
BITMAP
0C00
0C00
0C00
0C00
FFE0
FFE0
0C00
0C00
0C00
0C00
0C00
ENDCHAR
STARTCHAR 002C
ENCODING 44
SWIDTH 252 0
DWIDTH 7 0
BBX 4 7 2 -4
BITMAP
60
F0
F0
30
30
20
40
ENDCHAR
STARTCHAR 002D
ENCODING 45
SWIDTH 576 0
DWIDTH 16 0
BBX 10 2 3 8
BITMAP
FFC0
FFC0
ENDCHAR
STARTCHAR 002E
ENCODING 46
SWIDTH 252 0
DWIDTH 7 0
BBX 3 3 2 0
BITMAP
60
E0
E0
ENDCHAR
STARTCHAR 002F
ENCODING 47
SWIDTH 504 0
DWIDTH 14 0
BBX 11 26 2 -4
BITMAP
0060
00E0
00C0
00C0
01C0
0180
0180
0380
0300
0300
0700
0600
0E00
0C00
0C00
1C00
1800
1800
3800
3000
3000
7000
6000
6000
E000
C000
ENDCHAR
STARTCHAR 0030
ENCODING 48
SWIDTH 576 0
DWIDTH 16 0
BBX 14 20 1 0
BITMAP
07C0
1FF0
3CF8
3038
701C
601C
600C
E00C
E00C
E00C
E00C
E00C
E00C
600C
601C
701C
7018
3838
1FF0
0FE0
ENDCHAR
STARTCHAR 0031
ENCODING 49
SWIDTH 468 0
DWIDTH 13 0
BBX 10 19 3 0
BITMAP
3C00
7C00
EC00
CC00
8C00
8C00
0C00
0C00
0C00
0C00
0C00
0C00
0C00
0C00
0C00
0C00
0C00
FFC0
FFC0
ENDCHAR
STARTCHAR 0032
ENCODING 50
SWIDTH 576 0
DWIDTH 16 0
BBX 13 20 2 0
BITMAP
0F80
3FE0
78F0
6070
E030
E038
C038
0030
0030
0070
00E0
01C0
0380
0700
0E00
1C00
3800
F000
FFF8
FFF8
ENDCHAR
STARTCHAR 0033
ENCODING 51
SWIDTH 576 0
DWIDTH 16 0
BBX 13 20 2 0
BITMAP
0F80
3FE0
78F0
6030
E038
0038
0038
0030
0070
07C0
07E0
0070
0030
0038
0018
C038
E038
7070
7FE0
1FC0
ENDCHAR
STARTCHAR 0034
ENCODING 52
SWIDTH 576 0
DWIDTH 16 0
BBX 14 19 1 0
BITMAP
00F0
01F0
01F0
03F0
0770
0670
0C70
1C70
1870
3070
7070
6070
FFFC
FFFC
0070
0070
0070
0070
0070
ENDCHAR
STARTCHAR 0035
ENCODING 53
SWIDTH 576 0
DWIDTH 16 0
BBX 13 19 2 0
BITMAP
7FF0
7FF0
6000
6000
6000
6000
6FC0
FFE0
F070
E038
0018
0018
0018
0018
E038
6038
7870
3FE0
0FC0
ENDCHAR
STARTCHAR 0036
ENCODING 54
SWIDTH 576 0
DWIDTH 16 0
BBX 13 19 2 0
BITMAP
0700
0600
0C00
1C00
1800
3000
7000
6FC0
FDE0
E070
C030
C038
C018
C038
C038
E030
7070
3FE0
1FC0
ENDCHAR
STARTCHAR 0037
ENCODING 55
SWIDTH 504 0
DWIDTH 14 0
BBX 12 19 1 0
BITMAP
FFF0
FFF0
0070
0060
0060
00E0
00C0
01C0
0180
0380
0300
0700
0700
0600
0E00
0C00
1C00
1800
3800
ENDCHAR
STARTCHAR 0038
ENCODING 56
SWIDTH 576 0
DWIDTH 16 0
BBX 13 20 2 0
BITMAP
0F80
3FE0
78F0
6030
E038
E038
E038
6030
7070
3FE0
3FE0
6030
E018
C018
C018
C018
E038
F078
7FF0
1FC0
ENDCHAR
STARTCHAR 0039
ENCODING 57
SWIDTH 576 0
DWIDTH 16 0
BBX 13 20 2 0
BITMAP
0F00
3FC0
78E0
E070
C030
C038
C038
C038
C038
E038
70F0
3FB0
1F60
00E0
00C0
0180
0380
0300
0600
0E00
ENDCHAR
STARTCHAR 003A
ENCODING 58
SWIDTH 288 0
DWIDTH 8 0
BBX 3 14 2 1
BITMAP
E0
E0
40
00
00
00
00
00
00
00
00
E0
E0
E0
ENDCHAR
STARTCHAR 003B
ENCODING 59
SWIDTH 288 0
DWIDTH 8 0
BBX 4 18 2 -3
BITMAP
70
70
20
00
00
00
00
00
00
00
00
60
F0
70
10
10
30
60
ENDCHAR
STARTCHAR 003C
ENCODING 60
SWIDTH 540 0
DWIDTH 15 0
BBX 10 12 3 3
BITMAP
00C0
03C0
0780
1E00
7800
E000
E000
7800
1E00
0780
01C0
0040
ENDCHAR
STARTCHAR 003D
ENCODING 61
SWIDTH 684 0
DWIDTH 19 0
BBX 13 8 3 5
BITMAP
FFF8
FFF8
0000
0000
0000
0000
FFF8
FFF8
ENDCHAR
STARTCHAR 003E
ENCODING 62
SWIDTH 540 0
DWIDTH 15 0
BBX 10 12 3 3
BITMAP
C000
E000
7800
1E00
0780
01C0
03C0
0F80
1E00
7800
E000
8000
ENDCHAR
STARTCHAR 003F
ENCODING 63
SWIDTH 576 0
DWIDTH 16 0
BBX 12 20 2 0
BITMAP
0F80
3FE0
79F0
E070
C030
C030
0030
0030
0070
00E0
01C0
0380
0700
0600
0600
0000
0000
0600
0E00
0600
ENDCHAR
STARTCHAR 0040
ENCODING 64
SWIDTH 1008 0
DWIDTH 28 0
BBX 24 25 2 -5
BITMAP
007C00
03FFC0
0781F0
1C0038
38001C
30000C
600006
60FB06
C1CF03
C18303
C30303
C30303
C30303
C30303
C30303
C18786
61FDFC
60F878
700000
300000
180000
0E0000
07E000
01FFF0
000FF0
ENDCHAR
STARTCHAR 0041
ENCODING 65
SWIDTH 648 0
DWIDTH 18 0
BBX 17 19 1 0
BITMAP
01C000
01C000
03E000
036000
076000
063000
063000
0E3800
0C1800
0C1800
1C1C00
1FFC00
3FFC00
300E00
300600
700700
600300
600300
E00380
ENDCHAR
STARTCHAR 0042
ENCODING 66
SWIDTH 612 0
DWIDTH 17 0
BBX 14 19 2 0
BITMAP
FFE0
FFF0
C038
C018
C018
C018
C018
C070
FFE0
FFF0
C038
C01C
C00C
C00C
C00C
C01C
C038
FFF8
FFE0
ENDCHAR
STARTCHAR 0043
ENCODING 67
SWIDTH 684 0
DWIDTH 19 0
BBX 16 20 2 0
BITMAP
03E0
1FF8
3E3C
780E
7007
E003
E003
C000
C000
C000
C000
C000
C000
C000
E003
6007
700E
3C1E
1FF8
07F0
ENDCHAR
STARTCHAR 0044
ENCODING 68
SWIDTH 684 0
DWIDTH 19 0
BBX 16 19 2 0
BITMAP
FFE0
FFF8
C03C
C01C
C00E
C006
C007
C007
C007
C007
C007
C007
C006
C00E
C00E
C01C
C0F8
FFF0
FFC0
ENDCHAR
STARTCHAR 0045
ENCODING 69
SWIDTH 540 0
DWIDTH 15 0
BBX 12 19 2 0
BITMAP
FFF0
FFF0
E000
E000
E000
E000
E000
E000
FFE0
FFE0
E000
E000
E000
E000
E000
E000
E000
FFF0
FFF0
ENDCHAR
STARTCHAR 0046
ENCODING 70
SWIDTH 504 0
DWIDTH 14 0
BBX 12 19 2 0
BITMAP
FFF0
FFF0
E000
E000
E000
E000
E000
E000
FFE0
FFE0
E000
E000
E000
E000
E000
E000
E000
E000
E000
ENDCHAR
STARTCHAR 0047
ENCODING 71
SWIDTH 684 0
DWIDTH 19 0
BBX 17 20 1 0
BITMAP
03F000
0FFC00
1F3E00
3C0700
380300
700380
600000
600000
600000
E00000
E07F80
607F80
600180
600180
700180
300380
380780
1C0F80
0FFD80
07F180
ENDCHAR
STARTCHAR 0048
ENCODING 72
SWIDTH 648 0
DWIDTH 18 0
BBX 15 19 2 0
BITMAP
C00E
C00E
C00E
C00E
C00E
C00E
C00E
C00E
FFFE
FFFE
C00E
C00E
C00E
C00E
C00E
C00E
C00E
C00E
C00E
ENDCHAR
STARTCHAR 0049
ENCODING 73
SWIDTH 216 0
DWIDTH 6 0
BBX 3 19 2 0
BITMAP
E0
E0
E0
E0
E0
E0
E0
E0
E0
E0
E0
E0
E0
E0
E0
E0
E0
E0
E0
ENDCHAR
STARTCHAR 004A
ENCODING 74
SWIDTH 324 0
DWIDTH 9 0
BBX 6 19 1 0
BITMAP
0C
0C
0C
0C
0C
0C
0C
0C
0C
0C
0C
0C
0C
0C
0C
0C
0C
FC
F8
ENDCHAR
STARTCHAR 004B
ENCODING 75
SWIDTH 612 0
DWIDTH 17 0
BBX 13 19 2 0
BITMAP
C078
C060
C0E0
C1C0
C380
C700
CE00
DC00
FC00
FE00
E600
C700
C380
C1C0
C0C0
C0E0
C070
C038
C018
ENDCHAR
STARTCHAR 004C
ENCODING 76
SWIDTH 504 0
DWIDTH 14 0
BBX 12 19 2 0
BITMAP
E000
E000
E000
E000
E000
E000
E000
E000
E000
C000
C000
C000
C000
C000
C000
C000
C000
FFF0
FFF0
ENDCHAR
STARTCHAR 004D
ENCODING 77
SWIDTH 792 0
DWIDTH 22 0
BBX 19 19 2 0
BITMAP
F001E0
F003E0
F803E0
D803E0
DC07E0
DC06E0
CC06E0
CE0EE0
C60CE0
C61CE0
C71CE0
C318E0
C3B8E0
C3B0E0
C1F0E0
C1F0E0
C0E0E0
C0E0E0
C0C0E0
ENDCHAR
STARTCHAR 004E
ENCODING 78
SWIDTH 684 0
DWIDTH 19 0
BBX 16 19 2 0
BITMAP
E007
F007
F807
F807
DC07
CE07
C607
C707
C387
C187
C1C7
C0E7
C067
C077
C03F
C01F
C01F
C00F
C007
ENDCHAR
STARTCHAR 004F
ENCODING 79
SWIDTH 720 0
DWIDTH 20 0
BBX 18 20 1 0
BITMAP
01F000
0FFC00
1F3E00
3C0700
380380
700380
700180
6001C0
E001C0
E001C0
E001C0
E001C0
6001C0
6001C0
700180
700380
380700
1E0F00
0FFE00
03F800
ENDCHAR
STARTCHAR 0050
ENCODING 80
SWIDTH 576 0
DWIDTH 16 0
BBX 13 19 2 0
BITMAP
FFE0
FFF0
C078
C038
C018
C018
C018
C018
C038
C070
FFF0
FFC0
C000
C000
C000
C000
C000
C000
C000
ENDCHAR
STARTCHAR 0051
ENCODING 81
SWIDTH 720 0
DWIDTH 20 0
BBX 18 22 1 -2
BITMAP
01F000
0FFC00
1F3E00
3C0700
380380
700380
700180
6001C0
E001C0
E001C0
E001C0
E001C0
6001C0
60E1C0
703180
703B80
381F00
1E0F00
0FFE00
03FB00
000380
000180
ENDCHAR
STARTCHAR 0052
ENCODING 82
SWIDTH 576 0
DWIDTH 16 0
BBX 13 19 2 0
BITMAP
FFE0
FFF0
C038
C018
C018
C018
C018
C018
C078
FFF0
FFC0
C380
C180
C1C0
C0E0
C060
C070
C038
C018
ENDCHAR
STARTCHAR 0053
ENCODING 83
SWIDTH 576 0
DWIDTH 16 0
BBX 14 20 1 0
BITMAP
07C0
1FF0
3C78
7038
701C
601C
6000
7000
3C00
1FC0
07F0
0078
001C
000C
E00C
600C
701C
3838
1FF8
0FE0
ENDCHAR
STARTCHAR 0054
ENCODING 84
SWIDTH 576 0
DWIDTH 16 0
BBX 14 19 1 0
BITMAP
FFFC
FFFC
0300
0300
0300
0300
0300
0300
0300
0300
0300
0300
0300
0300
0300
0300
0300
0300
0300
ENDCHAR
STARTCHAR 0055
ENCODING 85
SWIDTH 684 0
DWIDTH 19 0
BBX 15 19 2 0
BITMAP
C006
C006
C006
C006
C006
C006
C006
C006
C006
C006
C006
C006
C006
E00E
E00E
701C
783C
3FF8
0FE0
ENDCHAR
STARTCHAR 0056
ENCODING 86
SWIDTH 612 0
DWIDTH 17 0
BBX 16 19 1 0
BITMAP
C007
E007
E006
600E
700E
700C
301C
3818
3818
1838
1C30
0C30
0C70
0E60
0660
06E0
07C0
03C0
03C0
ENDCHAR
STARTCHAR 0057
ENCODING 87
SWIDTH 972 0
DWIDTH 27 0
BBX 26 19 1 0
BITMAP
C01C00C0
C01E01C0
E01E0180
E03E0180
60360380
60370380
70730300
30730300
30638700
30E18700
38E18600
18C1C600
19C0CE00
19C0CC00
1D80EC00
0D806C00
0F807C00
0F007800
0F003800
ENDCHAR
STARTCHAR 0058
ENCODING 88
SWIDTH 648 0
DWIDTH 18 0
BBX 16 19 1 0
BITMAP
6007
700E
380C
181C
1C38
0E30
0670
07E0
03C0
03C0
03E0
0760
0E70
0C38
1C18
381C
300E
7006
E007
ENDCHAR
STARTCHAR 0059
ENCODING 89
SWIDTH 612 0
DWIDTH 17 0
BBX 15 19 1 0
BITMAP
E00E
701C
701C
3838
3838
1C70
1C60
0EE0
06C0
07C0
0380
0380
0380
0380
0380
0380
0380
0380
0380
ENDCHAR
STARTCHAR 005A
ENCODING 90
SWIDTH 612 0
DWIDTH 17 0
BBX 14 19 1 0
BITMAP
FFFC
FFFC
001C
0038
0070
0070
00E0
01C0
0380
0380
0700
0E00
0C00
1C00
3800
7000
7000
FFFC
FFFC
ENDCHAR
STARTCHAR 005B
ENCODING 91
SWIDTH 432 0
DWIDTH 12 0
BBX 8 28 2 -5
BITMAP
FF
FF
C0
C0
C0
C0
C0
C0
C0
C0
C0
C0
C0
C0
C0
C0
C0
C0
C0
C0
C0
C0
C0
C0
C0
C0
FF
FF
ENDCHAR
STARTCHAR 005C
ENCODING 92
SWIDTH 504 0
DWIDTH 14 0
BBX 11 26 1 -4
BITMAP
C000
E000
6000
6000
7000
3000
3800
1800
1800
1C00
0C00
0C00
0E00
0600
0600
0700
0300
0300
0180
0180
01C0
00C0
00C0
00E0
0060
0060
ENDCHAR
STARTCHAR 005D
ENCODING 93
SWIDTH 432 0
DWIDTH 12 0
BBX 8 28 2 -5
BITMAP
FF
FF
03
03
03
03
03
03
03
03
03
03
03
03
03
03
03
03
03
03
03
03
03
03
03
03
FF
FF
ENDCHAR
STARTCHAR 005E
ENCODING 94
SWIDTH 396 0
DWIDTH 11 0
BBX 9 5 1 16
BITMAP
1C00
3E00
3300
6380
C180
ENDCHAR
STARTCHAR 005F
ENCODING 95
SWIDTH 684 0
DWIDTH 19 0
BBX 14 2 3 0
BITMAP
FFFC
FFFC
ENDCHAR
STARTCHAR 0060
ENCODING 96
SWIDTH 216 0
DWIDTH 6 0
BBX 5 5 1 17
BITMAP
E0
60
30
30
18
ENDCHAR
STARTCHAR 0061
ENCODING 97
SWIDTH 612 0
DWIDTH 17 0
BBX 14 15 1 0
BITMAP
0F8C
3FCC
386C
703C
601C
E01C
E00C
E00C
E00C
E01C
601C
703C
386C
3FCC
0F8C
ENDCHAR
STARTCHAR 0062
ENCODING 98
SWIDTH 612 0
DWIDTH 17 0
BBX 14 21 2 0
BITMAP
C000
C000
C000
C000
C000
C000
C7C0
CFF0
D870
F038
E018
E01C
E01C
E01C
E01C
E01C
E018
F038
D878
CFF0
C7E0
ENDCHAR
STARTCHAR 0063
ENCODING 99
SWIDTH 576 0
DWIDTH 16 0
BBX 14 15 1 0
BITMAP
07C0
1FF0
3878
7018
601C
601C
E000
E000
E000
6000
601C
7018
3838
1FF0
0FC0
ENDCHAR
STARTCHAR 0064
ENCODING 100
SWIDTH 612 0
DWIDTH 17 0
BBX 14 21 1 0
BITMAP
000C
000C
000C
000C
000C
000C
0F8C
1FCC
386C
703C
601C
601C
E00C
E00C
E00C
601C
601C
701C
382C
3FCC
0F8C
ENDCHAR
STARTCHAR 0065
ENCODING 101
SWIDTH 576 0
DWIDTH 16 0
BBX 14 15 1 0
BITMAP
0FC0
1FF0
3830
7018
6018
601C
E01C
FFFC
E000
6000
6000
7018
3838
1FF0
0FC0
ENDCHAR
STARTCHAR 0066
ENCODING 102
SWIDTH 360 0
DWIDTH 10 0
BBX 8 20 1 1
BITMAP
1F
1C
38
38
38
FF
FF
38
38
38
38
38
38
38
38
38
38
38
38
38
ENDCHAR
STARTCHAR 0067
ENCODING 103
SWIDTH 612 0
DWIDTH 17 0
BBX 14 21 1 -6
BITMAP
0F8C
1FCC
386C
701C
701C
601C
E00C
E00C
E00C
601C
701C
703C
3C6C
1FCC
070C
000C
001C
001C
0478
07F0
07C0
ENDCHAR
STARTCHAR 0068
ENCODING 104
SWIDTH 612 0
DWIDTH 17 0
BBX 13 21 2 0
BITMAP
C000
C000
C000
C000
C000
C000
C7C0
CFE0
D8F0
E038
E038
E018
C018
C018
C018
C018
C018
C018
C018
C018
C018
ENDCHAR
STARTCHAR 0069
ENCODING 105
SWIDTH 216 0
DWIDTH 6 0
BBX 3 20 2 0
BITMAP
E0
E0
40
00
00
E0
E0
E0
E0
E0
E0
E0
E0
E0
E0
E0
E0
E0
E0
E0
ENDCHAR
STARTCHAR 006A
ENCODING 106
SWIDTH 252 0
DWIDTH 7 0
BBX 6 26 -1 -6
BITMAP
1C
1C
08
00
00
1C
1C
1C
1C
1C
1C
1C
1C
1C
1C
1C
1C
1C
1C
1C
1C
1C
1C
1C
F8
F0
ENDCHAR
STARTCHAR 006B
ENCODING 107
SWIDTH 504 0
DWIDTH 14 0
BBX 11 21 2 0
BITMAP
E000
E000
E000
E000
E000
E000
E0E0
E1C0
E380
E700
EE00
FC00
F800
F800
FC00
EE00
E600
E300
E380
E1C0
E0E0
ENDCHAR
STARTCHAR 006C
ENCODING 108
SWIDTH 288 0
DWIDTH 8 0
BBX 6 21 2 0
BITMAP
E0
E0
E0
E0
E0
E0
E0
E0
E0
E0
E0
E0
E0
E0
E0
E0
E0
E0
E0
FC
7C
ENDCHAR
STARTCHAR 006D
ENCODING 109
SWIDTH 936 0
DWIDTH 26 0
BBX 23 15 2 0
BITMAP
C7C1F0
CFE3F8
D8F63C
E07C1C
E0380E
E0380E
C0380E
C0380E
C0380E
C0380E
C0380E
C0380E
C0380E
C0380E
C0380E
ENDCHAR
STARTCHAR 006E
ENCODING 110
SWIDTH 612 0
DWIDTH 17 0
BBX 13 15 2 0
BITMAP
C7C0
CFE0
D8F0
E038
E038
E018
C018
C018
C018
C018
C018
C018
C018
C018
C018
ENDCHAR
STARTCHAR 006F
ENCODING 111
SWIDTH 576 0
DWIDTH 16 0
BBX 14 15 1 0
BITMAP
07C0
1FF0
3878
7038
601C
601C
E00C
E00C
E00C
601C
601C
7018
3878
1FF0
0FC0
ENDCHAR
STARTCHAR 0070
ENCODING 112
SWIDTH 612 0
DWIDTH 17 0
BBX 14 21 2 -6
BITMAP
C7C0
CFF0
D870
F038
E018
E01C
E01C
E01C
E01C
E01C
E018
F038
D878
CFF0
C7E0
C000
C000
C000
C000
C000
C000
ENDCHAR
STARTCHAR 0071
ENCODING 113
SWIDTH 612 0
DWIDTH 17 0
BBX 14 21 1 -6
BITMAP
0F8C
1FCC
386C
703C
701C
601C
E00C
E00C
E00C
600C
601C
701C
382C
3FEC
0F8C
000C
000C
000C
000C
000C
000C
ENDCHAR
STARTCHAR 0072
ENCODING 114
SWIDTH 324 0
DWIDTH 9 0
BBX 7 15 2 0
BITMAP
C6
DE
DE
E0
E0
C0
C0
C0
C0
C0
C0
C0
C0
C0
C0
ENDCHAR
STARTCHAR 0073
ENCODING 115
SWIDTH 468 0
DWIDTH 13 0
BBX 12 15 1 0
BITMAP
1F80
3FC0
70E0
6060
6060
6000
7C00
1FC0
03E0
0060
E070
E070
70E0
3FE0
1F80
ENDCHAR
STARTCHAR 0074
ENCODING 116
SWIDTH 360 0
DWIDTH 10 0
BBX 8 19 1 0
BITMAP
18
18
18
18
FF
FF
18
18
18
18
18
18
18
18
18
18
18
1F
0F
ENDCHAR
STARTCHAR 0075
ENCODING 117
SWIDTH 576 0
DWIDTH 16 0
BBX 13 15 2 0
BITMAP
C038
C038
C038
C038
C038
C038
C038
C038
C038
E038
E038
E038
7078
7FB8
1F38
ENDCHAR
STARTCHAR 0076
ENCODING 118
SWIDTH 540 0
DWIDTH 15 0
BBX 13 15 1 0
BITMAP
C018
E018
6038
6030
7030
3070
3060
3860
18E0
1CC0
0DC0
0D80
0F80
0780
0700
ENDCHAR
STARTCHAR 0077
ENCODING 119
SWIDTH 792 0
DWIDTH 22 0
BBX 21 15 1 0
BITMAP
C07038
C07038
607030
60F030
60D870
70D860
31D860
319C60
318CE0
3B8CC0
1B0EC0
1B06C0
1F0780
0F0780
0E0380
ENDCHAR
STARTCHAR 0078
ENCODING 120
SWIDTH 540 0
DWIDTH 15 0
BBX 13 15 1 0
BITMAP
E038
6070
7060
38E0
18C0
1DC0
0F80
0700
0F80
0D80
1DC0
38E0
3060
7070
E038
ENDCHAR
STARTCHAR 0079
ENCODING 121
SWIDTH 504 0
DWIDTH 14 0
BBX 13 21 1 -6
BITMAP
C018
E038
6030
6030
7070
3060
38E0
18C0
18C0
1DC0
0D80
0D80
0700
0700
0700
0600
0E00
0C00
1C00
F800
E000
ENDCHAR
STARTCHAR 007A
ENCODING 122
SWIDTH 468 0
DWIDTH 13 0
BBX 12 15 1 0
BITMAP
7FF0
7FF0
0060
00E0
01C0
0380
0300
0600
0E00
1C00
3800
3000
6000
FFF0
FFF0
ENDCHAR
STARTCHAR 007B
ENCODING 123
SWIDTH 432 0
DWIDTH 12 0
BBX 8 29 3 -6
BITMAP
1F
1F
30
30
30
30
30
30
30
30
30
30
30
30
E0
30
30
30
30
30
30
30
30
30
30
30
30
1F
0F
ENDCHAR
STARTCHAR 007C
ENCODING 124
SWIDTH 288 0
DWIDTH 8 0
BBX 2 33 3 -7
BITMAP
C0
C0
C0
C0
C0
C0
C0
C0
C0
C0
C0
C0
C0
C0
C0
C0
C0
C0
C0
C0
C0
C0
C0
C0
C0
C0
C0
C0
C0
C0
C0
C0
C0
ENDCHAR
STARTCHAR 007D
ENCODING 125
SWIDTH 468 0
DWIDTH 13 0
BBX 9 29 3 -6
BITMAP
F800
FC00
0C00
0C00
0C00
0C00
0C00
0C00
0C00
0C00
0C00
0C00
0C00
0600
0380
0600
0C00
0C00
0C00
0C00
0C00
0C00
0C00
0C00
0C00
0C00
0C00
FC00
F800
ENDCHAR
STARTCHAR 007E
ENCODING 126
SWIDTH 540 0
DWIDTH 15 0
BBX 10 3 3 9
BITMAP
78C0
FF80
8700
ENDCHAR
STARTCHAR 00A0
ENCODING 160
SWIDTH 216 0
DWIDTH 6 0
BBX 0 0 0 0
BITMAP
ENDCHAR
STARTCHAR 00A1
ENCODING 161
SWIDTH 216 0
DWIDTH 6 0
BBX 3 21 2 -7
BITMAP
E0
E0
40
00
00
40
40
C0
C0
C0
C0
C0
C0
E0
E0
E0
E0
E0
E0
E0
E0
ENDCHAR
STARTCHAR 00A2
ENCODING 162
SWIDTH 576 0
DWIDTH 16 0
BBX 14 19 1 -2
BITMAP
0100
0100
07C0
1FF0
3978
7118
611C
611C
E100
E100
E100
6100
611C
7118
3938
1FF0
0FC0
0100
0100
ENDCHAR
STARTCHAR 00A3
ENCODING 163
SWIDTH 576 0
DWIDTH 16 0
BBX 14 20 1 0
BITMAP
07C0
1FF0
3C78
7038
7018
701C
7000
7000
3800
3C00
1C00
7FE0
7FE0
0E00
0E00
0C00
1C00
3000
FFFC
FFFC
ENDCHAR
STARTCHAR 00A4
ENCODING 164
SWIDTH 576 0
DWIDTH 16 0
BBX 13 12 2 4
BITMAP
CF30
7FF0
70E0
6070
C030
C030
C030
C030
6070
70E0
7FF0
CFB8
ENDCHAR
STARTCHAR 00A5
ENCODING 165
SWIDTH 612 0
DWIDTH 17 0
BBX 15 19 1 0
BITMAP
E00E
701C
701C
3838
3838
1C70
1C60
0EE0
06C0
07C0
0380
3FF8
0380
0380
3FF8
3FF8
0380
0380
0380
ENDCHAR
STARTCHAR 00A6
ENCODING 166
SWIDTH 288 0
DWIDTH 8 0
BBX 2 33 3 -7
BITMAP
C0
C0
C0
C0
C0
C0
C0
C0
C0
C0
C0
C0
C0
C0
00
00
00
00
00
C0
C0
C0
C0
C0
C0
C0
C0
C0
C0
C0
C0
C0
C0
ENDCHAR
STARTCHAR 00A7
ENCODING 167
SWIDTH 540 0
DWIDTH 15 0
BBX 13 20 1 0
BITMAP
0F80
3FE0
38E0
7070
7000
3000
3F80
7FE0
6070
E038
6018
7038
3FF0
0FE0
0070
0030
6030
7070
3FE0
1FC0
ENDCHAR
STARTCHAR 00A8
ENCODING 168
SWIDTH 360 0
DWIDTH 10 0
BBX 8 3 1 17
BITMAP
E7
E7
40
ENDCHAR
STARTCHAR 00A9
ENCODING 169
SWIDTH 792 0
DWIDTH 22 0
BBX 20 20 1 0
BITMAP
00F800
07FF00
0E0380
1800C0
307060
61FC60
630630
460230
C60330
C40010
C40010
C40010
C60330
630630
63DC20
30F860
3800C0
1C0180
0F9F00
03FE00
ENDCHAR
STARTCHAR 00AA
ENCODING 170
SWIDTH 144 0
DWIDTH 4 0
BBX 4 4 0 11
BITMAP
50
B0
90
F0
ENDCHAR
STARTCHAR 00AB
ENCODING 171
SWIDTH 612 0
DWIDTH 17 0
BBX 15 12 1 3
BITMAP
0706
060E
0C1C
1838
3070
60E0
E0C0
7060
3830
1C18
0E0C
0706
ENDCHAR
STARTCHAR 00AC
ENCODING 172
SWIDTH 648 0
DWIDTH 18 0
BBX 14 7 2 8
BITMAP
FFFC
FFFC
000C
000C
000C
000C
000C
ENDCHAR
STARTCHAR 00AD
ENCODING 173
SWIDTH 576 0
DWIDTH 16 0
BBX 10 2 3 8
BITMAP
FFC0
FFC0
ENDCHAR
STARTCHAR 00AE
ENCODING 174
SWIDTH 324 0
DWIDTH 9 0
BBX 7 7 1 12
BITMAP
7C
5A
AA
BA
8A
64
18
ENDCHAR
STARTCHAR 00AF
ENCODING 175
SWIDTH 360 0
DWIDTH 10 0
BBX 8 1 1 18
BITMAP
FF
ENDCHAR
STARTCHAR 00B0
ENCODING 176
SWIDTH 288 0
DWIDTH 8 0
BBX 5 5 2 19
BITMAP
70
98
88
98
F0
ENDCHAR
STARTCHAR 00B1
ENCODING 177
SWIDTH 576 0
DWIDTH 16 0
BBX 11 15 3 0
BITMAP
0E00
0E00
0E00
0E00
FFE0
FFE0
0E00
0E00
0E00
0E00
0E00
0000
0000
FFE0
FFE0
ENDCHAR
STARTCHAR 00B2
ENCODING 178
SWIDTH 288 0
DWIDTH 8 0
BBX 7 10 1 11
BITMAP
78
CC
C6
06
0C
0C
38
60
C0
FE
ENDCHAR
STARTCHAR 00B3
ENCODING 179
SWIDTH 288 0
DWIDTH 8 0
BBX 7 11 1 10
BITMAP
7C
CE
C6
06
3C
3C
06
06
C6
7C
30
ENDCHAR
STARTCHAR 00B4
ENCODING 180
SWIDTH 216 0
DWIDTH 6 0
BBX 5 5 1 17
BITMAP
38
30
60
60
C0
ENDCHAR
STARTCHAR 00B5
ENCODING 181
SWIDTH 612 0
DWIDTH 17 0
BBX 15 21 2 -6
BITMAP
C070
C070
C070
C070
C070
C070
C070
C070
C070
C070
C070
E0F0
E0B0
FFBE
DF1E
C000
C000
C000
C000
C000
C000
ENDCHAR
STARTCHAR 00B6
ENCODING 182
SWIDTH 504 0
DWIDTH 14 0
BBX 12 19 1 0
BITMAP
3FF0
7FF0
FF30
FF30
FF30
FF30
FF30
FF30
7F30
0730
0130
0130
0130
0130
0130
0130
0130
0130
0130
ENDCHAR
STARTCHAR 00B7
ENCODING 183
SWIDTH 252 0
DWIDTH 7 0
BBX 4 3 2 9
BITMAP
60
F0
E0
ENDCHAR
STARTCHAR 00B8
ENCODING 184
SWIDTH 216 0
DWIDTH 6 0
BBX 5 7 1 -7
BITMAP
40
C0
F0
08
08
F8
F0
ENDCHAR
STARTCHAR 00B9
ENCODING 185
SWIDTH 252 0
DWIDTH 7 0
BBX 5 10 1 11
BITMAP
60
E0
A0
20
20
20
20
20
20
F8
ENDCHAR
STARTCHAR 00BA
ENCODING 186
SWIDTH 144 0
DWIDTH 4 0
BBX 4 4 0 11
BITMAP
60
D0
90
70
ENDCHAR
STARTCHAR 00BB
ENCODING 187
SWIDTH 612 0
DWIDTH 17 0
BBX 15 12 1 3
BITMAP
E0C0
7060
3830
1C38
0E1C
060E
0706
0E0C
1C18
3830
3070
60E0
ENDCHAR
STARTCHAR 00BC
ENCODING 188
SWIDTH 792 0
DWIDTH 22 0
BBX 20 19 1 0
BITMAP
700180
F00300
B00700
300600
300E00
300C00
301800
303800
FC3000
007060
0060E0
00C0E0
01C160
018360
038260
0307F0
0607F0
0E0060
0C0060
ENDCHAR
STARTCHAR 00BD
ENCODING 189
SWIDTH 828 0
DWIDTH 23 0
BBX 21 19 1 0
BITMAP
700180
F00180
B00300
300700
300600
300C00
300C00
301800
FC3800
0030F0
0061F8
006198
00C018
01C018
018030
038060
0300C0
0601F8
0E01F8
ENDCHAR
STARTCHAR 00BE
ENCODING 190
SWIDTH 828 0
DWIDTH 23 0
BBX 21 20 1 0
BITMAP
100000
7C01C0
C60180
060380
060300
1C0600
060E00
060C00
C61C00
7C1800
303030
007070
0060F0
00E0B0
00C1B0
018130
0383F8
0303F8
070030
060030
ENDCHAR
STARTCHAR 00BF
ENCODING 191
SWIDTH 576 0
DWIDTH 16 0
BBX 12 20 2 -7
BITMAP
0700
0700
0600
0000
0000
0700
0600
0E00
1C00
3800
7000
E000
E000
C000
C030
C030
E070
79E0
3FC0
1F80
ENDCHAR
STARTCHAR 00C0
ENCODING 192
SWIDTH 648 0
DWIDTH 18 0
BBX 17 26 1 0
BITMAP
060000
070000
030000
018000
018000
000000
000000
01C000
01C000
03E000
036000
076000
063000
063000
0E3800
0C1800
0C1800
1C1C00
1FFC00
3FFC00
300E00
300600
700700
600300
600300
E00380
ENDCHAR
STARTCHAR 00C1
ENCODING 193
SWIDTH 648 0
DWIDTH 18 0
BBX 17 26 1 0
BITMAP
003000
007000
006000
00C000
00C000
000000
000000
01C000
01C000
03E000
036000
076000
063000
063000
0E3800
0C1800
0C1800
1C1C00
1FFC00
3FFC00
300E00
300600
700700
600300
600300
E00380
ENDCHAR
STARTCHAR 00C2
ENCODING 194
SWIDTH 648 0
DWIDTH 18 0
BBX 17 25 1 0
BITMAP
01C000
036000
063000
0C1800
000000
000000
01C000
01C000
03E000
036000
076000
063000
063000
0E3800
0C1800
0C1800
1C1C00
1FFC00
3FFC00
300E00
300600
700700
600300
600300
E00380
ENDCHAR
STARTCHAR 00C3
ENCODING 195
SWIDTH 648 0
DWIDTH 18 0
BBX 17 25 1 0
BITMAP
071000
07F000
0C6000
000000
000000
000000
01C000
01C000
03E000
036000
076000
063000
063000
0E3800
0C1800
0C1800
1C1C00
1FFC00
3FFC00
300E00
300600
700700
600300
600300
E00380
ENDCHAR
STARTCHAR 00C4
ENCODING 196
SWIDTH 648 0
DWIDTH 18 0
BBX 17 25 1 0
BITMAP
0E3800
0E3800
063000
000000
000000
000000
01C000
01C000
03E000
036000
076000
063000
063000
0E3800
0C1800
0C1800
1C1C00
1FFC00
3FFC00
300E00
300600
700700
600300
600300
E00380
ENDCHAR
STARTCHAR 00C5
ENCODING 197
SWIDTH 648 0
DWIDTH 18 0
BBX 17 27 1 0
BITMAP
008000
036000
022000
026000
01C000
000000
000000
000000
01C000
01C000
03E000
036000
076000
063000
063000
0E3800
0C1800
0C1800
1C1C00
1FFC00
3FFC00
300E00
300600
700700
600300
600300
E00380
ENDCHAR
STARTCHAR 00C6
ENCODING 198
SWIDTH 936 0
DWIDTH 26 0
BBX 24 19 1 0
BITMAP
007FFF
007FFF
00EC00
00EC00
01CC00
01CC00
038C00
030C00
070FFE
060FFE
0E0C00
0FFC00
1FFC00
380C00
380C00
700C00
700C00
E00FFF
E00FFF
ENDCHAR
STARTCHAR 00C7
ENCODING 199
SWIDTH 684 0
DWIDTH 19 0
BBX 16 27 2 -7
BITMAP
03E0
1FF8
3E3C
780E
7007
E003
E003
C000
C000
C000
C000
C000
C000
C000
E003
6007
700E
3C1E
1FF8
07F0
0080
01C0
01F0
0010
0010
01F0
01C0
ENDCHAR
STARTCHAR 00C8
ENCODING 200
SWIDTH 540 0
DWIDTH 15 0
BBX 12 26 2 0
BITMAP
3800
1800
0C00
0C00
0600
0000
0000
FFF0
FFF0
E000
E000
E000
E000
E000
E000
FFE0
FFE0
E000
E000
E000
E000
E000
E000
E000
FFF0
FFF0
ENDCHAR
STARTCHAR 00C9
ENCODING 201
SWIDTH 540 0
DWIDTH 15 0
BBX 12 26 2 0
BITMAP
01C0
0180
0380
0300
0600
0000
0000
FFF0
FFF0
E000
E000
E000
E000
E000
E000
FFE0
FFE0
E000
E000
E000
E000
E000
E000
E000
FFF0
FFF0
ENDCHAR
STARTCHAR 00CA
ENCODING 202
SWIDTH 540 0
DWIDTH 15 0
BBX 12 25 2 0
BITMAP
0F00
1F80
39C0
30E0
0000
0000
FFF0
FFF0
E000
E000
E000
E000
E000
E000
FFE0
FFE0
E000
E000
E000
E000
E000
E000
E000
FFF0
FFF0
ENDCHAR
STARTCHAR 00CB
ENCODING 203
SWIDTH 540 0
DWIDTH 15 0
BBX 12 25 2 0
BITMAP
39C0
39C0
10C0
0000
0000
0000
FFF0
FFF0
E000
E000
E000
E000
E000
E000
FFE0
FFE0
E000
E000
E000
E000
E000
E000
E000
FFF0
FFF0
ENDCHAR
STARTCHAR 00CC
ENCODING 204
SWIDTH 216 0
DWIDTH 6 0
BBX 6 26 -1 0
BITMAP
E0
70
30
18
18
00
00
1C
1C
1C
1C
1C
1C
1C
1C
1C
1C
1C
1C
1C
1C
1C
1C
1C
1C
1C
ENDCHAR
STARTCHAR 00CD
ENCODING 205
SWIDTH 216 0
DWIDTH 6 0
BBX 5 26 2 0
BITMAP
18
38
30
60
40
00
00
E0
E0
E0
E0
E0
E0
E0
E0
E0
E0
E0
E0
E0
E0
E0
E0
E0
E0
E0
ENDCHAR
STARTCHAR 00CE
ENCODING 206
SWIDTH 216 0
DWIDTH 6 0
BBX 9 25 -1 0
BITMAP
1C00
3600
6300
C380
0000
0000
1C00
1C00
1C00
1C00
1C00
1C00
1C00
1C00
1C00
1C00
1C00
1C00
1C00
1C00
1C00
1C00
1C00
1C00
1C00
ENDCHAR
STARTCHAR 00CF
ENCODING 207
SWIDTH 216 0
DWIDTH 6 0
BBX 9 25 -1 0
BITMAP
E380
E380
6300
0000
0000
0000
1C00
1C00
1C00
1C00
1C00
1C00
1C00
1C00
1C00
1C00
1C00
1C00
1C00
1C00
1C00
1C00
1C00
1C00
1C00
ENDCHAR
STARTCHAR 00D0
ENCODING 208
SWIDTH 684 0
DWIDTH 19 0
BBX 18 19 1 0
BITMAP
3FF800
3FFC00
300E00
300700
300380
300380
300180
3001C0
FF01C0
FF01C0
3001C0
300180
300180
300380
300380
300700
303E00
3FFC00
3FF000
ENDCHAR
STARTCHAR 00D1
ENCODING 209
SWIDTH 684 0
DWIDTH 19 0
BBX 16 25 2 0
BITMAP
0730
0FF0
08E0
0000
0000
0000
E007
F007
F807
F807
DC07
CE07
C607
C707
C387
C187
C1C7
C0E7
C067
C077
C03F
C01F
C01F
C00F
C007
ENDCHAR
STARTCHAR 00D2
ENCODING 210
SWIDTH 720 0
DWIDTH 20 0
BBX 18 26 1 0
BITMAP
070000
030000
018000
01C000
00C000
000000
01F000
0FFC00
1F3E00
3C0700
380380
700380
700180
6001C0
E001C0
E001C0
E001C0
E001C0
6001C0
6001C0
700180
700380
380700
1E0F00
0FFE00
03F800
ENDCHAR
STARTCHAR 00D3
ENCODING 211
SWIDTH 720 0
DWIDTH 20 0
BBX 18 26 1 0
BITMAP
001800
003000
007000
006000
00C000
000000
01F000
0FFC00
1F3E00
3C0700
380380
700380
700180
6001C0
E001C0
E001C0
E001C0
E001C0
6001C0
6001C0
700180
700380
380700
1E0F00
0FFE00
03F800
ENDCHAR
STARTCHAR 00D4
ENCODING 212
SWIDTH 720 0
DWIDTH 20 0
BBX 18 25 1 0
BITMAP
01E000
01B000
033800
061C00
000000
01F000
0FFC00
1F3E00
3C0700
380380
700380
700180
6001C0
E001C0
E001C0
E001C0
E001C0
6001C0
6001C0
700180
700380
380700
1E0F00
0FFE00
03F800
ENDCHAR
STARTCHAR 00D5
ENCODING 213
SWIDTH 720 0
DWIDTH 20 0
BBX 18 25 1 0
BITMAP
038800
07F800
067000
000000
000000
01F000
0FFC00
1F3E00
3C0700
380380
700380
700180
6001C0
E001C0
E001C0
E001C0
E001C0
6001C0
6001C0
700180
700380
380700
1E0F00
0FFE00
03F800
ENDCHAR
STARTCHAR 00D6
ENCODING 214
SWIDTH 720 0
DWIDTH 20 0
BBX 18 25 1 0
BITMAP
071800
073C00
021800
000000
000000
01F000
0FFC00
1F3E00
3C0700
380380
700380
700180
6001C0
E001C0
E001C0
E001C0
E001C0
6001C0
6001C0
700180
700380
380700
1E0F00
0FFE00
03F800
ENDCHAR
STARTCHAR 00D7
ENCODING 215
SWIDTH 540 0
DWIDTH 15 0
BBX 9 9 3 4
BITMAP
4180
E380
7700
3E00
1C00
3E00
7700
E380
4100
ENDCHAR
STARTCHAR 00D8
ENCODING 216
SWIDTH 720 0
DWIDTH 20 0
BBX 17 22 2 -1
BITMAP
000300
03E700
1FFE00
3E3C00
781E00
701F00
E03F00
E03380
C06380
C0E380
C0C180
C18180
C38380
C30380
E60380
EE0300
7C0700
780E00
3C1E00
3FFC00
77F000
600000
ENDCHAR
STARTCHAR 00D9
ENCODING 217
SWIDTH 684 0
DWIDTH 19 0
BBX 15 26 2 0
BITMAP
0C00
0E00
0600
0300
0300
0000
0000
C006
C006
C006
C006
C006
C006
C006
C006
C006
C006
C006
C006
C006
E00E
E00E
701C
783C
3FF8
0FE0
ENDCHAR
STARTCHAR 00DA
ENCODING 218
SWIDTH 684 0
DWIDTH 19 0
BBX 15 26 2 0
BITMAP
0060
00E0
00C0
0180
0180
0000
0000
C006
C006
C006
C006
C006
C006
C006
C006
C006
C006
C006
C006
C006
E00E
E00E
701C
783C
3FF8
0FE0
ENDCHAR
STARTCHAR 00DB
ENCODING 219
SWIDTH 684 0
DWIDTH 19 0
BBX 15 25 2 0
BITMAP
0380
06C0
0C60
1830
0000
0000
C006
C006
C006
C006
C006
C006
C006
C006
C006
C006
C006
C006
C006
E00E
E00E
701C
783C
3FF8
0FE0
ENDCHAR
STARTCHAR 00DC
ENCODING 220
SWIDTH 684 0
DWIDTH 19 0
BBX 15 25 2 0
BITMAP
1C70
1C70
0C60
0000
0000
0000
C006
C006
C006
C006
C006
C006
C006
C006
C006
C006
C006
C006
C006
E00E
E00E
701C
783C
3FF8
0FE0
ENDCHAR
STARTCHAR 00DD
ENCODING 221
SWIDTH 612 0
DWIDTH 17 0
BBX 15 26 1 0
BITMAP
0060
00E0
00C0
0180
0180
0000
0000
E00E
701C
701C
3838
3838
1C70
1C60
0EE0
06C0
07C0
0380
0380
0380
0380
0380
0380
0380
0380
0380
ENDCHAR
STARTCHAR 00DE
ENCODING 222
SWIDTH 576 0
DWIDTH 16 0
BBX 13 19 2 0
BITMAP
C000
C000
C000
FFC0
FFE0
C070
C038
C018
C018
C018
C018
C018
C038
C1F0
FFE0
FF80
C000
C000
C000
ENDCHAR
STARTCHAR 00DF
ENCODING 223
SWIDTH 540 0
DWIDTH 15 0
BBX 12 20 2 0
BITMAP
0F80
3FC0
70E0
6070
E070
C030
C070
C060
C1E0
CF80
CFC0
C060
C030
C030
C030
C030
C070
C0F0
CFE0
CF80
ENDCHAR
STARTCHAR 00E0
ENCODING 224
SWIDTH 612 0
DWIDTH 17 0
BBX 14 22 1 0
BITMAP
1C00
0C00
0E00
0600
0300
0000
0000
0F8C
3FCC
386C
703C
601C
E01C
E00C
E00C
E00C
E01C
601C
703C
386C
3FCC
0F8C
ENDCHAR
STARTCHAR 00E1
ENCODING 225
SWIDTH 612 0
DWIDTH 17 0
BBX 14 22 1 0
BITMAP
0070
0060
00E0
00C0
0180
0000
0000
0F8C
3FCC
386C
703C
601C
E01C
E00C
E00C
E00C
E01C
601C
703C
386C
3FCC
0F8C
ENDCHAR
STARTCHAR 00E2
ENCODING 226
SWIDTH 612 0
DWIDTH 17 0
BBX 14 21 1 0
BITMAP
0380
0380
06C0
0C60
1830
0000
0F8C
3FCC
386C
703C
601C
E01C
E00C
E00C
E00C
E01C
601C
703C
386C
3FCC
0F8C
ENDCHAR
STARTCHAR 00E3
ENCODING 227
SWIDTH 612 0
DWIDTH 17 0
BBX 14 20 1 0
BITMAP
0F20
0FE0
08C0
0000
0000
0F8C
3FCC
386C
703C
601C
E01C
E00C
E00C
E00C
E01C
601C
703C
386C
3FCC
0F8C
ENDCHAR
STARTCHAR 00E4
ENCODING 228
SWIDTH 612 0
DWIDTH 17 0
BBX 14 20 1 0
BITMAP
1C70
1C70
0820
0000
0000
0F8C
3FCC
386C
703C
601C
E01C
E00C
E00C
E00C
E01C
601C
703C
386C
3FCC
0F8C
ENDCHAR
STARTCHAR 00E5
ENCODING 229
SWIDTH 612 0
DWIDTH 17 0
BBX 14 22 1 0
BITMAP
0380
06C0
0440
06C0
0380
0000
0000
0F8C
3FCC
386C
703C
601C
E01C
E00C
E00C
E00C
E01C
601C
703C
386C
3FCC
0F8C
ENDCHAR
STARTCHAR 00E6
ENCODING 230
SWIDTH 936 0
DWIDTH 26 0
BBX 24 15 1 0
BITMAP
0F81F0
3FE7F8
386E1C
703C0E
603806
003806
003807
3FFFFF
783800
603800
E03800
E03C06
706E0E
7FC7FC
3F83F0
ENDCHAR
STARTCHAR 00E7
ENCODING 231
SWIDTH 576 0
DWIDTH 16 0
BBX 14 22 1 -7
BITMAP
07C0
1FF0
3878
7018
601C
601C
E000
E000
E000
6000
601C
7018
3838
1FF0
0FE0
0100
0300
03E0
0020
0020
03E0
0380
ENDCHAR
STARTCHAR 00E8
ENCODING 232
SWIDTH 576 0
DWIDTH 16 0
BBX 14 22 1 0
BITMAP
1800
0C00
0E00
0600
0300
0000
0000
0FC0
1FF0
3830
7018
6018
601C
E01C
FFFC
E000
6000
6000
7018
3838
1FF0
0FC0
ENDCHAR
STARTCHAR 00E9
ENCODING 233
SWIDTH 576 0
DWIDTH 16 0
BBX 14 22 1 0
BITMAP
0070
0060
00C0
01C0
0180
0000
0000
0FC0
1FF0
3830
7018
6018
601C
E01C
FFFC
E000
6000
6000
7018
3838
1FF0
0FC0
ENDCHAR
STARTCHAR 00EA
ENCODING 234
SWIDTH 576 0
DWIDTH 16 0
BBX 14 21 1 0
BITMAP
0300
0780
0EC0
0C60
1830
0000
0FC0
1FF0
3830
7018
6018
601C
E01C
FFFC
E000
6000
6000
7018
3838
1FF0
0FC0
ENDCHAR
STARTCHAR 00EB
ENCODING 235
SWIDTH 576 0
DWIDTH 16 0
BBX 14 20 1 0
BITMAP
1C70
1C70
0800
0000
0000
0FC0
1FF0
3830
7018
6018
601C
E01C
FFFC
E000
6000
6000
7018
3838
1FF0
0FC0
ENDCHAR
STARTCHAR 00EC
ENCODING 236
SWIDTH 216 0
DWIDTH 6 0
BBX 6 22 -1 0
BITMAP
E0
60
70
30
18
00
00
1C
1C
1C
1C
1C
1C
1C
1C
1C
1C
1C
1C
1C
1C
1C
ENDCHAR
STARTCHAR 00ED
ENCODING 237
SWIDTH 216 0
DWIDTH 6 0
BBX 6 22 2 0
BITMAP
1C
18
30
30
60
00
00
E0
E0
E0
E0
E0
E0
E0
E0
E0
E0
E0
E0
E0
E0
E0
ENDCHAR
STARTCHAR 00EE
ENCODING 238
SWIDTH 216 0
DWIDTH 6 0
BBX 9 21 -1 0
BITMAP
1C00
1C00
3600
6300
C180
0000
1C00
1C00
1C00
1C00
1C00
1C00
1C00
1C00
1C00
1C00
1C00
1C00
1C00
1C00
1C00
ENDCHAR
STARTCHAR 00EF
ENCODING 239
SWIDTH 216 0
DWIDTH 6 0
BBX 9 20 -1 0
BITMAP
E380
E380
4100
0000
0000
1C00
1C00
1C00
1C00
1C00
1C00
1C00
1C00
1C00
1C00
1C00
1C00
1C00
1C00
1C00
ENDCHAR
STARTCHAR 00F0
ENCODING 240
SWIDTH 612 0
DWIDTH 17 0
BBX 14 22 1 0
BITMAP
0708
07DC
00F0
01F0
0338
0018
0018
0F9C
3FDC
787C
703C
601C
E01C
E01C
E01C
E01C
E01C
6018
7038
3870
3FF0
0FC0
ENDCHAR
STARTCHAR 00F1
ENCODING 241
SWIDTH 612 0
DWIDTH 17 0
BBX 13 20 2 0
BITMAP
1E40
1FC0
1180
0000
0000
C7C0
CFE0
D8F0
E038
E038
E018
C018
C018
C018
C018
C018
C018
C018
C018
C018
ENDCHAR
STARTCHAR 00F2
ENCODING 242
SWIDTH 576 0
DWIDTH 16 0
BBX 14 22 1 0
BITMAP
1800
0C00
0E00
0600
0300
0000
0000
07C0
1FF0
3878
7038
601C
601C
E00C
E00C
E00C
601C
601C
7018
3878
1FF0
0FC0
ENDCHAR
STARTCHAR 00F3
ENCODING 243
SWIDTH 576 0
DWIDTH 16 0
BBX 14 22 1 0
BITMAP
0070
0060
00C0
01C0
0180
0000
0000
07C0
1FF0
3878
7038
601C
601C
E00C
E00C
E00C
601C
601C
7018
3878
1FF0
0FC0
ENDCHAR
STARTCHAR 00F4
ENCODING 244
SWIDTH 576 0
DWIDTH 16 0
BBX 14 21 1 0
BITMAP
0300
0780
0EC0
0C60
1830
0000
07C0
1FF0
3878
7038
601C
601C
E00C
E00C
E00C
601C
601C
7018
3878
1FF0
0FC0
ENDCHAR
STARTCHAR 00F5
ENCODING 245
SWIDTH 576 0
DWIDTH 16 0
BBX 14 20 1 0
BITMAP
0F20
1BE0
18C0
0000
0000
07C0
1FF0
3878
7038
601C
601C
E00C
E00C
E00C
601C
601C
7018
3878
1FF0
0FC0
ENDCHAR
STARTCHAR 00F6
ENCODING 246
SWIDTH 576 0
DWIDTH 16 0
BBX 14 20 1 0
BITMAP
1C70
1C70
0800
0000
0000
07C0
1FF0
3878
7038
601C
601C
E00C
E00C
E00C
601C
601C
7018
3878
1FF0
0FC0
ENDCHAR
STARTCHAR 00F7
ENCODING 247
SWIDTH 576 0
DWIDTH 16 0
BBX 11 13 2 2
BITMAP
0E00
0E00
0E00
0000
0000
FFE0
FFE0
0000
0000
0000
0E00
0E00
0400
ENDCHAR
STARTCHAR 00F8
ENCODING 248
SWIDTH 576 0
DWIDTH 16 0
BBX 14 17 1 -1
BITMAP
0018
07F0
1FF0
3878
7078
60DC
619C
E18C
E30C
E30C
661C
661C
7C18
3878
1FF0
3FC0
3000
ENDCHAR
STARTCHAR 00F9
ENCODING 249
SWIDTH 576 0
DWIDTH 16 0
BBX 13 22 2 0
BITMAP
3000
3800
1800
0C00
0C00
0000
0000
C038
C038
C038
C038
C038
C038
C038
C038
C038
E038
E038
E038
7078
7FB8
1F38
ENDCHAR
STARTCHAR 00FA
ENCODING 250
SWIDTH 576 0
DWIDTH 16 0
BBX 13 22 2 0
BITMAP
00C0
01C0
0180
0300
0300
0000
0000
C038
C038
C038
C038
C038
C038
C038
C038
C038
E038
E038
E038
7078
7FB8
1F38
ENDCHAR
STARTCHAR 00FB
ENCODING 251
SWIDTH 576 0
DWIDTH 16 0
BBX 13 21 2 0
BITMAP
0600
0F00
1F80
39C0
70E0
0000
C038
C038
C038
C038
C038
C038
C038
C038
C038
E038
E038
E038
7078
7FB8
1F38
ENDCHAR
STARTCHAR 00FC
ENCODING 252
SWIDTH 576 0
DWIDTH 16 0
BBX 13 20 2 0
BITMAP
39C0
39C0
1080
0000
0000
C038
C038
C038
C038
C038
C038
C038
C038
C038
E038
E038
E038
7078
7FB8
1F38
ENDCHAR
STARTCHAR 00FD
ENCODING 253
SWIDTH 504 0
DWIDTH 14 0
BBX 13 28 1 -6
BITMAP
00E0
00C0
0180
0180
0300
0000
0000
C018
E038
6030
6030
7070
3060
38E0
18C0
18C0
1DC0
0D80
0D80
0700
0700
0700
0600
0E00
0C00
1C00
F800
E000
ENDCHAR
STARTCHAR 00FE
ENCODING 254
SWIDTH 612 0
DWIDTH 17 0
BBX 14 27 2 -6
BITMAP
C000
C000
C000
C000
C000
C000
C7C0
CFF0
D870
F038
E018
E01C
E01C
E01C
E01C
E01C
E018
F038
D878
CFF0
C7E0
C000
C000
C000
C000
C000
C000
ENDCHAR
STARTCHAR 00FF
ENCODING 255
SWIDTH 504 0
DWIDTH 14 0
BBX 13 26 1 -6
BITMAP
38E0
38E0
1040
0000
0000
C018
E038
6030
6030
7070
3060
38E0
18C0
18C0
1DC0
0D80
0D80
0700
0700
0700
0600
0E00
0C00
1C00
F800
E000
ENDCHAR
STARTCHAR 0100
ENCODING 256
SWIDTH 648 0
DWIDTH 18 0
BBX 17 23 1 0
BITMAP
0FF800
000000
000000
000000
01C000
01C000
03E000
036000
076000
063000
063000
0E3800
0C1800
0C1800
1C1C00
1FFC00
3FFC00
300E00
300600
700700
600300
600300
E00380
ENDCHAR
STARTCHAR 0101
ENCODING 257
SWIDTH 612 0
DWIDTH 17 0
BBX 14 19 1 0
BITMAP
1FF0
1FF0
0000
0000
0F8C
3FCC
386C
703C
601C
E01C
E00C
E00C
E00C
E01C
601C
703C
386C
3FCC
0F8C
ENDCHAR
STARTCHAR 0102
ENCODING 258
SWIDTH 648 0
DWIDTH 18 0
BBX 17 25 1 0
BITMAP
0C1800
0E3000
03E000
000000
000000
000000
01C000
01C000
03E000
036000
076000
063000
063000
0E3800
0C1800
0C1800
1C1C00
1FFC00
3FFC00
300E00
300600
700700
600300
600300
E00380
ENDCHAR
STARTCHAR 0103
ENCODING 259
SWIDTH 612 0
DWIDTH 17 0
BBX 14 20 1 0
BITMAP
1830
0EE0
07C0
0000
0000
0F8C
3FCC
386C
703C
601C
E01C
E00C
E00C
E00C
E01C
601C
703C
386C
3FCC
0F8C
ENDCHAR
STARTCHAR 0104
ENCODING 260
SWIDTH 648 0
DWIDTH 18 0
BBX 18 24 1 -5
BITMAP
01C000
01C000
03E000
036000
076000
063000
063000
0E3800
0C1800
0C1800
1C1C00
1FFC00
3FFC00
300E00
300600
700700
600300
600300
E00380
000300
000600
000600
0003C0
000080
ENDCHAR
STARTCHAR 0105
ENCODING 261
SWIDTH 612 0
DWIDTH 17 0
BBX 15 20 1 -5
BITMAP
0F8C
3FCC
386C
703C
601C
E01C
E00C
E00C
E00C
E01C
601C
703C
386C
3FCC
0F8C
0018
0018
0018
001E
0004
ENDCHAR
STARTCHAR 0106
ENCODING 262
SWIDTH 684 0
DWIDTH 19 0
BBX 16 26 2 0
BITMAP
0070
0060
00C0
00C0
0180
0000
03E0
1FF8
3E3C
780E
7007
E003
E003
C000
C000
C000
C000
C000
C000
C000
E003
6007
700E
3C1E
1FF8
07F0
ENDCHAR
STARTCHAR 0107
ENCODING 263
SWIDTH 576 0
DWIDTH 16 0
BBX 14 22 1 0
BITMAP
0070
0060
00C0
01C0
0180
0000
0000
07C0
1FF0
3878
7018
601C
601C
E000
E000
E000
6000
601C
7018
3838
1FF0
0FC0
ENDCHAR
STARTCHAR 010A
ENCODING 266
SWIDTH 684 0
DWIDTH 19 0
BBX 16 25 2 0
BITMAP
0180
03C0
0180
0000
0000
03E0
1FF8
3E3C
780E
7007
E003
E003
C000
C000
C000
C000
C000
C000
C000
E003
6007
700E
3C1E
1FF8
07F0
ENDCHAR
STARTCHAR 010B
ENCODING 267
SWIDTH 576 0
DWIDTH 16 0
BBX 14 20 1 0
BITMAP
0380
0380
0100
0000
0000
07C0
1FF0
3878
7018
601C
601C
E000
E000
E000
6000
601C
7018
3838
1FF0
0FC0
ENDCHAR
STARTCHAR 010C
ENCODING 268
SWIDTH 684 0
DWIDTH 19 0
BBX 16 25 2 0
BITMAP
0C70
0660
03C0
0180
0000
03E0
1FF8
3E3C
780E
7007
E003
E003
C000
C000
C000
C000
C000
C000
C000
E003
6007
700E
3C1E
1FF8
07F0
ENDCHAR
STARTCHAR 010D
ENCODING 269
SWIDTH 576 0
DWIDTH 16 0
BBX 14 21 1 0
BITMAP
1830
0C60
0EC0
0780
0300
0000
07C0
1FF0
3878
7018
601C
601C
E000
E000
E000
6000
601C
7018
3838
1FF0
0FC0
ENDCHAR
STARTCHAR 010E
ENCODING 270
SWIDTH 684 0
DWIDTH 19 0
BBX 16 25 2 0
BITMAP
1C60
0EC0
0780
0300
0000
0000
FFE0
FFF8
C03C
C01C
C00E
C006
C007
C007
C007
C007
C007
C007
C006
C00E
C00E
C01C
C0F8
FFF0
FFC0
ENDCHAR
STARTCHAR 010F
ENCODING 271
SWIDTH 720 0
DWIDTH 20 0
BBX 19 22 1 0
BITMAP
0000C0
000DE0
000DE0
000C60
000C20
000C60
000CC0
0F8C00
1FCC00
386C00
703C00
601C00
601C00
E00C00
E00C00
E00C00
601C00
601C00
701C00
382C00
3FCC00
0F8C00
ENDCHAR
STARTCHAR 0110
ENCODING 272
SWIDTH 684 0
DWIDTH 19 0
BBX 18 19 1 0
BITMAP
3FF800
3FFC00
300E00
300700
300380
300380
300180
3001C0
FF01C0
FF01C0
3001C0
300180
300180
300380
300380
300700
303E00
3FFC00
3FF000
ENDCHAR
STARTCHAR 0111
ENCODING 273
SWIDTH 612 0
DWIDTH 17 0
BBX 16 21 1 0
BITMAP
000C
000C
01FF
01FF
000C
000C
0F8C
1FCC
386C
703C
601C
601C
E00C
E00C
E00C
601C
601C
701C
382C
3FCC
0F8C
ENDCHAR
STARTCHAR 0112
ENCODING 274
SWIDTH 540 0
DWIDTH 15 0
BBX 12 23 2 0
BITMAP
3FC0
0000
0000
0000
FFF0
FFF0
E000
E000
E000
E000
E000
E000
FFE0
FFE0
E000
E000
E000
E000
E000
E000
E000
FFF0
FFF0
ENDCHAR
STARTCHAR 0113
ENCODING 275
SWIDTH 576 0
DWIDTH 16 0
BBX 14 19 1 0
BITMAP
1FE0
1FE0
0000
0000
0FC0
1FF0
3830
7018
6018
601C
E01C
FFFC
E000
6000
6000
7018
3838
1FF0
0FC0
ENDCHAR
STARTCHAR 0116
ENCODING 278
SWIDTH 540 0
DWIDTH 15 0
BBX 12 25 2 0
BITMAP
0600
0F00
0600
0000
0000
0000
FFF0
FFF0
E000
E000
E000
E000
E000
E000
FFE0
FFE0
E000
E000
E000
E000
E000
E000
E000
FFF0
FFF0
ENDCHAR
STARTCHAR 0117
ENCODING 279
SWIDTH 576 0
DWIDTH 16 0
BBX 14 20 1 0
BITMAP
0380
0380
0100
0000
0000
0FC0
1FF0
3830
7018
6018
601C
E01C
FFFC
E000
6000
6000
7018
3838
1FF0
0FC0
ENDCHAR
STARTCHAR 0118
ENCODING 280
SWIDTH 540 0
DWIDTH 15 0
BBX 13 24 2 -5
BITMAP
FFF0
FFF0
E000
E000
E000
E000
E000
E000
FFE0
FFE0
E000
E000
E000
E000
E000
E000
E000
FFF0
FFF0
0060
0060
0060
0078
0010
ENDCHAR
STARTCHAR 0119
ENCODING 281
SWIDTH 576 0
DWIDTH 16 0
BBX 14 20 1 -5
BITMAP
0FC0
1FF0
3830
7018
6018
601C
E01C
FFFC
E000
6000
6000
7018
3838
1FF0
0FC0
0300
0600
0600
0780
0180
ENDCHAR
STARTCHAR 011A
ENCODING 282
SWIDTH 540 0
DWIDTH 15 0
BBX 12 25 2 0
BITMAP
38C0
1980
0F00
0600
0000
0000
FFF0
FFF0
E000
E000
E000
E000
E000
E000
FFE0
FFE0
E000
E000
E000
E000
E000
E000
E000
FFF0
FFF0
ENDCHAR
STARTCHAR 011B
ENCODING 283
SWIDTH 576 0
DWIDTH 16 0
BBX 14 21 1 0
BITMAP
1830
1C60
0EC0
0780
0300
0000
0FC0
1FF0
3830
7018
6018
601C
E01C
FFFC
E000
6000
6000
7018
3838
1FF0
0FC0
ENDCHAR
STARTCHAR 011E
ENCODING 286
SWIDTH 684 0
DWIDTH 19 0
BBX 17 25 1 0
BITMAP
0E0C00
071800
03F000
000000
000000
03F000
0FFC00
1F3E00
3C0700
380300
700380
600000
600000
600000
E00000
E07F80
607F80
600180
600180
700180
300380
380780
1C0F80
0FFD80
07F180
ENDCHAR
STARTCHAR 011F
ENCODING 287
SWIDTH 612 0
DWIDTH 17 0
BBX 14 26 1 -6
BITMAP
1830
0EE0
07C0
0000
0000
0F8C
1FCC
386C
701C
701C
601C
E00C
E00C
E00C
601C
701C
703C
3C6C
1FCC
070C
000C
001C
001C
0478
07F0
07C0
ENDCHAR
STARTCHAR 0120
ENCODING 288
SWIDTH 684 0
DWIDTH 19 0
BBX 17 25 1 0
BITMAP
00C000
00E000
00C000
000000
000000
03F000
0FFC00
1F3E00
3C0700
380300
700380
600000
600000
600000
E00000
E07F80
607F80
600180
600180
700180
300380
380780
1C0F80
0FFD80
07F180
ENDCHAR
STARTCHAR 0121
ENCODING 289
SWIDTH 612 0
DWIDTH 17 0
BBX 14 26 1 -6
BITMAP
0380
0380
0100
0000
0000
0F8C
1FCC
386C
701C
701C
601C
E00C
E00C
E00C
601C
701C
703C
3C6C
1FCC
070C
000C
001C
001C
0478
07F0
07C0
ENDCHAR
STARTCHAR 0126
ENCODING 294
SWIDTH 684 0
DWIDTH 19 0
BBX 18 19 1 0
BITMAP
700300
700300
700300
FFFFC0
FFFFC0
700300
700300
700300
7FFF00
7FFF00
700300
700300
700300
700300
700300
700300
700300
700300
700300
ENDCHAR
STARTCHAR 0127
ENCODING 295
SWIDTH 576 0
DWIDTH 16 0
BBX 15 21 0 0
BITMAP
3800
3800
FF80
FF80
3800
3800
38F8
3BFC
3E1E
3C0E
3806
3806
3806
3806
3806
3806
3806
3806
3806
3806
3806
ENDCHAR
STARTCHAR 0128
ENCODING 296
SWIDTH 216 0
DWIDTH 6 0
BBX 8 25 -1 0
BITMAP
71
7F
C6
00
00
00
1C
1C
1C
1C
1C
1C
1C
1C
1C
1C
1C
1C
1C
1C
1C
1C
1C
1C
1C
ENDCHAR
STARTCHAR 0129
ENCODING 297
SWIDTH 216 0
DWIDTH 6 0
BBX 8 20 -1 0
BITMAP
79
7F
C6
00
00
1C
1C
1C
1C
1C
1C
1C
1C
1C
1C
1C
1C
1C
1C
1C
ENDCHAR
STARTCHAR 012A
ENCODING 298
SWIDTH 216 0
DWIDTH 6 0
BBX 9 23 -1 0
BITMAP
FF80
0000
0000
0000
1C00
1C00
1C00
1C00
1C00
1C00
1C00
1C00
1C00
1C00
1C00
1C00
1C00
1C00
1C00
1C00
1C00
1C00
1C00
ENDCHAR
STARTCHAR 012B
ENCODING 299
SWIDTH 216 0
DWIDTH 6 0
BBX 9 19 -1 0
BITMAP
FF80
FF80
0000
0000
1C00
1C00
1C00
1C00
1C00
1C00
1C00
1C00
1C00
1C00
1C00
1C00
1C00
1C00
1C00
ENDCHAR
STARTCHAR 012E
ENCODING 302
SWIDTH 216 0
DWIDTH 6 0
BBX 5 24 1 -5
BITMAP
70
70
70
70
70
70
70
70
70
70
70
70
70
70
70
70
70
70
70
60
C0
C0
78
10
ENDCHAR
STARTCHAR 012F
ENCODING 303
SWIDTH 216 0
DWIDTH 6 0
BBX 5 25 1 -5
BITMAP
70
70
20
00
00
70
70
70
70
70
70
70
70
70
70
70
70
70
70
70
60
C0
C0
78
10
ENDCHAR
STARTCHAR 0130
ENCODING 304
SWIDTH 216 0
DWIDTH 6 0
BBX 3 25 2 0
BITMAP
E0
E0
40
00
00
00
E0
E0
E0
E0
E0
E0
E0
E0
E0
E0
E0
E0
E0
E0
E0
E0
E0
E0
E0
ENDCHAR
STARTCHAR 0131
ENCODING 305
SWIDTH 216 0
DWIDTH 6 0
BBX 3 15 2 0
BITMAP
E0
E0
E0
E0
E0
E0
E0
E0
E0
E0
E0
E0
E0
E0
E0
ENDCHAR
STARTCHAR 0139
ENCODING 313
SWIDTH 504 0
DWIDTH 14 0
BBX 12 26 2 0
BITMAP
1800
3000
3000
6000
C000
0000
0000
E000
E000
E000
E000
E000
E000
E000
E000
E000
C000
C000
C000
C000
C000
C000
C000
C000
FFF0
FFF0
ENDCHAR
STARTCHAR 013A
ENCODING 314
SWIDTH 288 0
DWIDTH 8 0
BBX 6 28 2 0
BITMAP
1C
18
30
70
60
00
00
E0
E0
E0
E0
E0
E0
E0
E0
E0
E0
E0
E0
E0
E0
E0
E0
E0
E0
E0
FC
7C
ENDCHAR
STARTCHAR 013D
ENCODING 317
SWIDTH 504 0
DWIDTH 14 0
BBX 15 25 -1 0
BITMAP
E300
7600
3C00
1C00
0000
0000
1C00
1C00
1C00
1C00
1C00
1C00
1C00
1C00
1C00
1800
1800
1800
1800
1800
1800
1800
1800
1FFE
1FFE
ENDCHAR
STARTCHAR 013E
ENCODING 318
SWIDTH 324 0
DWIDTH 9 0
BBX 8 22 2 0
BITMAP
06
EE
EF
E3
E2
E2
EC
E8
E0
E0
E0
E0
E0
E0
E0
E0
E0
E0
E0
E0
FC
7C
ENDCHAR
STARTCHAR 0143
ENCODING 323
SWIDTH 684 0
DWIDTH 19 0
BBX 16 26 2 0
BITMAP
0070
0060
00C0
00C0
0180
0000
0000
E007
F007
F807
F807
DC07
CE07
C607
C707
C387
C187
C1C7
C0E7
C067
C077
C03F
C01F
C01F
C00F
C007
ENDCHAR
STARTCHAR 0144
ENCODING 324
SWIDTH 612 0
DWIDTH 17 0
BBX 13 22 2 0
BITMAP
00E0
00C0
01C0
0180
0300
0000
0000
C7C0
CFE0
D8F0
E038
E038
E018
C018
C018
C018
C018
C018
C018
C018
C018
C018
ENDCHAR
STARTCHAR 0147
ENCODING 327
SWIDTH 684 0
DWIDTH 19 0
BBX 16 25 2 0
BITMAP
0C70
06E0
03C0
0180
0000
0000
E007
F007
F807
F807
DC07
CE07
C607
C707
C387
C187
C1C7
C0E7
C067
C077
C03F
C01F
C01F
C00F
C007
ENDCHAR
STARTCHAR 0148
ENCODING 328
SWIDTH 612 0
DWIDTH 17 0
BBX 13 21 2 0
BITMAP
3060
18C0
0D80
0700
0700
0000
C7C0
CFE0
D8F0
E038
E038
E018
C018
C018
C018
C018
C018
C018
C018
C018
C018
ENDCHAR
STARTCHAR 014C
ENCODING 332
SWIDTH 720 0
DWIDTH 20 0
BBX 18 23 1 0
BITMAP
07F800
000000
000000
01F000
0FFC00
1F3E00
3C0700
380380
700380
700180
6001C0
E001C0
E001C0
E001C0
E001C0
6001C0
6001C0
700180
700380
380700
1E0F00
0FFE00
03F800
ENDCHAR
STARTCHAR 014D
ENCODING 333
SWIDTH 576 0
DWIDTH 16 0
BBX 14 19 1 0
BITMAP
1FE0
1FE0
0000
0000
07C0
1FF0
3878
7038
601C
601C
E00C
E00C
E00C
601C
601C
7018
3878
1FF0
0FC0
ENDCHAR
STARTCHAR 0152
ENCODING 338
SWIDTH 936 0
DWIDTH 26 0
BBX 24 19 1 0
BITMAP
07FFFF
1FFFFF
3C0C00
380C00
700C00
600C00
E00C00
E00C00
E00FFE
E00FFE
E00C00
E00C00
600C00
700C00
700C00
380C00
1E0C00
0FFFFF
03FFFF
ENDCHAR
STARTCHAR 0153
ENCODING 339
SWIDTH 972 0
DWIDTH 27 0
BBX 25 15 1 0
BITMAP
07C0F800
1FE1FE00
38730700
703E0300
601E0380
601C0180
E00C0180
E00FFF80
E00C0000
601C0000
601E0000
703E0380
38730700
1FE3FE00
0FC0FC00
ENDCHAR
STARTCHAR 0154
ENCODING 340
SWIDTH 576 0
DWIDTH 16 0
BBX 13 26 2 0
BITMAP
01C0
0180
0300
0300
0600
0000
0000
FFE0
FFF0
C038
C018
C018
C018
C018
C018
C078
FFF0
FFC0
C380
C180
C1C0
C0E0
C060
C070
C038
C018
ENDCHAR
STARTCHAR 0155
ENCODING 341
SWIDTH 324 0
DWIDTH 9 0
BBX 7 22 2 0
BITMAP
06
0E
0C
18
18
00
00
C6
DE
DE
E0
E0
C0
C0
C0
C0
C0
C0
C0
C0
C0
C0
ENDCHAR
STARTCHAR 0158
ENCODING 344
SWIDTH 576 0
DWIDTH 16 0
BBX 13 25 2 0
BITMAP
31C0
1B80
0F00
0600
0000
0000
FFE0
FFF0
C038
C018
C018
C018
C018
C018
C078
FFF0
FFC0
C380
C180
C1C0
C0E0
C060
C070
C038
C018
ENDCHAR
STARTCHAR 0159
ENCODING 345
SWIDTH 324 0
DWIDTH 9 0
BBX 10 21 0 0
BITMAP
E1C0
7380
3F00
1E00
0C00
0000
3180
3780
3780
3800
3800
3000
3000
3000
3000
3000
3000
3000
3000
3000
3000
ENDCHAR
STARTCHAR 015A
ENCODING 346
SWIDTH 576 0
DWIDTH 16 0
BBX 14 26 1 0
BITMAP
0070
0060
00C0
00C0
0180
0000
07C0
1FF0
3C78
7038
701C
601C
6000
7000
3C00
1FC0
07F0
0078
001C
000C
E00C
600C
701C
3838
1FF8
0FE0
ENDCHAR
STARTCHAR 015B
ENCODING 347
SWIDTH 468 0
DWIDTH 13 0
BBX 12 22 1 0
BITMAP
00C0
01C0
0180
0300
0300
0000
0000
1F80
3FC0
70E0
6060
6060
6000
7C00
1FC0
03E0
0060
E070
E070
70E0
3FE0
1F80
ENDCHAR
STARTCHAR 015E
ENCODING 350
SWIDTH 576 0
DWIDTH 16 0
BBX 14 27 1 -7
BITMAP
07C0
1FF0
3C78
7038
701C
601C
6000
7000
3C00
1FC0
07F0
0078
001C
000C
E00C
600C
701C
3838
1FF8
0FE0
0100
0300
03C0
0020
0020
03E0
03C0
ENDCHAR
STARTCHAR 015F
ENCODING 351
SWIDTH 468 0
DWIDTH 13 0
BBX 12 22 1 -7
BITMAP
1F80
3FC0
70E0
6060
6060
6000
7C00
1FC0
03E0
0060
E070
E070
70E0
3FE0
1F80
0600
0400
0780
00C0
00C0
0780
0700
ENDCHAR
STARTCHAR 0160
ENCODING 352
SWIDTH 576 0
DWIDTH 16 0
BBX 14 25 1 0
BITMAP
0C70
06E0
03C0
0180
0000
07C0
1FF0
3C78
7038
701C
601C
6000
7000
3C00
1FC0
07F0
0078
001C
000C
E00C
600C
701C
3838
1FF8
0FE0
ENDCHAR
STARTCHAR 0161
ENCODING 353
SWIDTH 468 0
DWIDTH 13 0
BBX 12 21 1 0
BITMAP
70C0
39C0
1F80
0F00
0000
0000
1F80
3FC0
70E0
6060
6060
6000
7C00
1FC0
03E0
0060
E070
E070
70E0
3FE0
1F80
ENDCHAR
STARTCHAR 0162
ENCODING 354
SWIDTH 576 0
DWIDTH 16 0
BBX 14 26 1 -7
BITMAP
FFFC
FFFC
0300
0300
0300
0300
0300
0300
0300
0300
0300
0300
0300
0300
0300
0300
0300
0300
0300
0300
0200
07C0
0040
0040
03C0
0380
ENDCHAR
STARTCHAR 0163
ENCODING 355
SWIDTH 360 0
DWIDTH 10 0
BBX 9 26 1 -7
BITMAP
1800
1800
1800
1800
FF00
FF00
1800
1800
1800
1800
1800
1800
1800
1800
1800
1800
1800
1F00
0F00
0400
0C00
0F80
0080
0080
0F80
0E00
ENDCHAR
STARTCHAR 0164
ENCODING 356
SWIDTH 576 0
DWIDTH 16 0
BBX 14 25 1 0
BITMAP
1C60
0EC0
0780
0300
0000
0000
FFFC
FFFC
0300
0300
0300
0300
0300
0300
0300
0300
0300
0300
0300
0300
0300
0300
0300
0300
0300
ENDCHAR
STARTCHAR 0165
ENCODING 357
SWIDTH 468 0
DWIDTH 13 0
BBX 12 22 1 0
BITMAP
0030
0070
0070
1810
1810
1810
1860
FF40
FF00
1800
1800
1800
1800
1800
1800
1800
1800
1800
1800
1800
1F00
0F00
ENDCHAR
STARTCHAR 0166
ENCODING 358
SWIDTH 576 0
DWIDTH 16 0
BBX 14 19 1 0
BITMAP
FFFC
FFFC
0300
0300
0300
0300
0300
7FF8
7FF8
0300
0300
0300
0300
0300
0300
0300
0300
0300
0300
ENDCHAR
STARTCHAR 0167
ENCODING 359
SWIDTH 360 0
DWIDTH 10 0
BBX 9 19 1 0
BITMAP
1800
1800
1800
1800
FF80
FF80
1800
1800
1800
1800
FF80
1800
1800
1800
1800
1800
1800
1F80
0F80
ENDCHAR
STARTCHAR 0168
ENCODING 360
SWIDTH 684 0
DWIDTH 19 0
BBX 15 25 2 0
BITMAP
0F20
0FE0
08E0
0000
0000
0000
C006
C006
C006
C006
C006
C006
C006
C006
C006
C006
C006
C006
C006
E00E
E00E
701C
783C
3FF8
0FE0
ENDCHAR
STARTCHAR 0169
ENCODING 361
SWIDTH 576 0
DWIDTH 16 0
BBX 13 20 2 0
BITMAP
1CC0
37C0
3180
0000
0000
C038
C038
C038
C038
C038
C038
C038
C038
C038
E038
E038
E038
7078
7FB8
1F38
ENDCHAR
STARTCHAR 016A
ENCODING 362
SWIDTH 684 0
DWIDTH 19 0
BBX 15 23 2 0
BITMAP
1FF0
0000
0000
0000
C006
C006
C006
C006
C006
C006
C006
C006
C006
C006
C006
C006
C006
E00E
E00E
701C
783C
3FF8
0FE0
ENDCHAR
STARTCHAR 016B
ENCODING 363
SWIDTH 576 0
DWIDTH 16 0
BBX 13 19 2 0
BITMAP
3FC0
3FC0
0000
0000
C038
C038
C038
C038
C038
C038
C038
C038
C038
E038
E038
E038
7078
7FB8
1F38
ENDCHAR
STARTCHAR 016E
ENCODING 366
SWIDTH 684 0
DWIDTH 19 0
BBX 15 27 2 0
BITMAP
0100
06C0
0440
06C0
0380
0000
0000
0000
C006
C006
C006
C006
C006
C006
C006
C006
C006
C006
C006
C006
C006
E00E
E00E
701C
783C
3FF8
0FE0
ENDCHAR
STARTCHAR 016F
ENCODING 367
SWIDTH 576 0
DWIDTH 16 0
BBX 13 22 2 0
BITMAP
0600
0900
0900
0900
0600
0000
0000
C038
C038
C038
C038
C038
C038
C038
C038
C038
E038
E038
E038
7078
7FB8
1F38
ENDCHAR
STARTCHAR 0172
ENCODING 370
SWIDTH 684 0
DWIDTH 19 0
BBX 15 24 2 -5
BITMAP
C006
C006
C006
C006
C006
C006
C006
C006
C006
C006
C006
C006
C006
E00E
E00E
701C
783C
3FF8
0FE0
0300
0200
0600
03C0
01C0
ENDCHAR
STARTCHAR 0173
ENCODING 371
SWIDTH 576 0
DWIDTH 16 0
BBX 13 19 2 -5
BITMAP
C038
C038
C038
C038
C038
C038
C038
C038
C038
E038
E038
E038
7078
7FB8
1F38
0030
0060
0060
0038
ENDCHAR
STARTCHAR 0174
ENCODING 372
SWIDTH 972 0
DWIDTH 27 0
BBX 26 25 1 0
BITMAP
001E0000
00360000
00730000
00E18000
00000000
00000000
C01C00C0
C01E01C0
E01E0180
E03E0180
60360380
60370380
70730300
30730300
30638700
30E18700
38E18600
18C1C600
19C0CE00
19C0CC00
1D80EC00
0D806C00
0F807C00
0F007800
0F003800
ENDCHAR
STARTCHAR 0175
ENCODING 373
SWIDTH 792 0
DWIDTH 22 0
BBX 21 21 1 0
BITMAP
006000
00F000
00D800
018C00
030600
000000
C07038
C07038
607030
60F030
60D870
70D860
31D860
319C60
318CE0
3B8CC0
1B0EC0
1B06C0
1F0780
0F0780
0E0380
ENDCHAR
STARTCHAR 0176
ENCODING 374
SWIDTH 612 0
DWIDTH 17 0
BBX 15 25 1 0
BITMAP
0380
06C0
0C60
1830
0000
0000
E00E
701C
701C
3838
3838
1C70
1C60
0EE0
06C0
07C0
0380
0380
0380
0380
0380
0380
0380
0380
0380
ENDCHAR
STARTCHAR 0177
ENCODING 375
SWIDTH 504 0
DWIDTH 14 0
BBX 13 27 1 -6
BITMAP
0700
0700
0D80
18C0
3060
0000
C018
E038
6030
6030
7070
3060
38E0
18C0
18C0
1DC0
0D80
0D80
0700
0700
0700
0600
0E00
0C00
1C00
F800
E000
ENDCHAR
STARTCHAR 0178
ENCODING 376
SWIDTH 612 0
DWIDTH 17 0
BBX 15 25 1 0
BITMAP
1C70
1C70
0C60
0000
0000
0000
E00E
701C
701C
3838
3838
1C70
1C60
0EE0
06C0
07C0
0380
0380
0380
0380
0380
0380
0380
0380
0380
ENDCHAR
STARTCHAR 0179
ENCODING 377
SWIDTH 612 0
DWIDTH 17 0
BBX 14 26 1 0
BITMAP
0060
00E0
00C0
0180
0180
0000
0000
FFFC
FFFC
001C
0038
0070
0070
00E0
01C0
0380
0380
0700
0E00
0C00
1C00
3800
7000
7000
FFFC
FFFC
ENDCHAR
STARTCHAR 017A
ENCODING 378
SWIDTH 468 0
DWIDTH 13 0
BBX 12 22 1 0
BITMAP
00C0
01C0
0180
0300
0300
0000
0000
7FF0
7FF0
0060
00E0
01C0
0380
0300
0600
0E00
1C00
3800
3000
6000
FFF0
FFF0
ENDCHAR
STARTCHAR 017B
ENCODING 379
SWIDTH 612 0
DWIDTH 17 0
BBX 14 25 1 0
BITMAP
0380
0380
0300
0000
0000
0000
FFFC
FFFC
001C
0038
0070
0070
00E0
01C0
0380
0380
0700
0E00
0C00
1C00
3800
7000
7000
FFFC
FFFC
ENDCHAR
STARTCHAR 017C
ENCODING 380
SWIDTH 468 0
DWIDTH 13 0
BBX 12 20 1 0
BITMAP
0700
0700
0000
0000
0000
7FF0
7FF0
0060
00E0
01C0
0380
0300
0600
0E00
1C00
3800
3000
6000
FFF0
FFF0
ENDCHAR
STARTCHAR 017D
ENCODING 381
SWIDTH 612 0
DWIDTH 17 0
BBX 14 25 1 0
BITMAP
1C70
0EE0
07C0
0380
0000
0000
FFFC
FFFC
001C
0038
0070
0070
00E0
01C0
0380
0380
0700
0E00
0C00
1C00
3800
7000
7000
FFFC
FFFC
ENDCHAR
STARTCHAR 017E
ENCODING 382
SWIDTH 468 0
DWIDTH 13 0
BBX 12 21 1 0
BITMAP
70E0
39C0
1D80
0F00
0600
0000
7FF0
7FF0
0060
00E0
01C0
0380
0300
0600
0E00
1C00
3800
3000
6000
FFF0
FFF0
ENDCHAR
STARTCHAR 01A0
ENCODING 416
SWIDTH 720 0
DWIDTH 20 0
BBX 18 22 1 0
BITMAP
000180
000180
01F700
0FFE00
1F3E00
3C0700
380380
700380
700180
6001C0
E001C0
E001C0
E001C0
E001C0
6001C0
6001C0
700180
700380
380700
1E0F00
0FFE00
03F800
ENDCHAR
STARTCHAR 01A1
ENCODING 417
SWIDTH 576 0
DWIDTH 16 0
BBX 14 17 1 0
BITMAP
000C
000C
07FC
1FF0
3878
7038
601C
601C
E00C
E00C
E00C
601C
601C
7018
3878
1FF0
0FC0
ENDCHAR
STARTCHAR 01AF
ENCODING 431
SWIDTH 684 0
DWIDTH 19 0
BBX 18 22 2 0
BITMAP
0000C0
0000C0
0001C0
C00780
C00600
C00600
C00600
C00600
C00600
C00600
C00600
C00600
C00600
C00600
C00600
C00600
E00E00
E00E00
701C00
783C00
3FF800
0FE000
ENDCHAR
STARTCHAR 01B0
ENCODING 432
SWIDTH 576 0
DWIDTH 16 0
BBX 16 17 2 0
BITMAP
0003
0003
C03E
C03C
C038
C038
C038
C038
C038
C038
C038
E038
E038
E038
7078
7FB8
1F38
ENDCHAR
STARTCHAR 02C6
ENCODING 710
SWIDTH 396 0
DWIDTH 11 0
BBX 9 5 1 16
BITMAP
0C00
1E00
3700
6300
C180
ENDCHAR
STARTCHAR 02C7
ENCODING 711
SWIDTH 396 0
DWIDTH 11 0
BBX 9 5 1 16
BITMAP
C180
6300
3600
1E00
1C00
ENDCHAR
STARTCHAR 02D8
ENCODING 728
SWIDTH 396 0
DWIDTH 11 0
BBX 9 3 1 17
BITMAP
C180
7700
3E00
ENDCHAR
STARTCHAR 02D9
ENCODING 729
SWIDTH 144 0
DWIDTH 4 0
BBX 3 3 1 17
BITMAP
E0
E0
40
ENDCHAR
STARTCHAR 02DA
ENCODING 730
SWIDTH 216 0
DWIDTH 6 0
BBX 5 5 1 17
BITMAP
70
D0
88
98
70
ENDCHAR
STARTCHAR 02DB
ENCODING 731
SWIDTH 180 0
DWIDTH 5 0
BBX 4 5 1 -5
BITMAP
60
C0
C0
C0
70
ENDCHAR
STARTCHAR 02DC
ENCODING 732
SWIDTH 360 0
DWIDTH 10 0
BBX 8 3 1 17
BITMAP
79
DF
C6
ENDCHAR
STARTCHAR 0300
ENCODING 768
SWIDTH 0 0
DWIDTH 0 0
BBX 5 5 -6 17
BITMAP
E0
60
70
30
18
ENDCHAR
STARTCHAR 0301
ENCODING 769
SWIDTH 0 0
DWIDTH 0 0
BBX 4 5 -5 17
BITMAP
30
70
60
C0
C0
ENDCHAR
STARTCHAR 0302
ENCODING 770
SWIDTH 0 0
DWIDTH 0 0
BBX 9 5 -10 16
BITMAP
0C00
1E00
3700
6380
E180
ENDCHAR
STARTCHAR 0303
ENCODING 771
SWIDTH 0 0
DWIDTH 0 0
BBX 8 3 -9 17
BITMAP
79
DF
C6
ENDCHAR
STARTCHAR 0304
ENCODING 772
SWIDTH 0 0
DWIDTH 0 0
BBX 8 1 -10 18
BITMAP
FF
ENDCHAR
STARTCHAR 0306
ENCODING 774
SWIDTH 0 0
DWIDTH 0 0
BBX 9 3 -10 17
BITMAP
C180
7700
3E00
ENDCHAR
STARTCHAR 0307
ENCODING 775
SWIDTH 0 0
DWIDTH 0 0
BBX 3 3 -5 17
BITMAP
E0
E0
40
ENDCHAR
STARTCHAR 0308
ENCODING 776
SWIDTH 0 0
DWIDTH 0 0
BBX 8 3 -10 17
BITMAP
E7
E7
42
ENDCHAR
STARTCHAR 0309
ENCODING 777
SWIDTH 0 0
DWIDTH 0 0
BBX 6 5 -7 17
BITMAP
7C
CC
0C
18
30
ENDCHAR
STARTCHAR 030A
ENCODING 778
SWIDTH 0 0
DWIDTH 0 0
BBX 5 5 -6 17
BITMAP
60
D0
98
90
70
ENDCHAR
STARTCHAR 030C
ENCODING 780
SWIDTH 0 0
DWIDTH 0 0
BBX 9 5 -10 16
BITMAP
C180
E300
7600
3C00
1800
ENDCHAR
STARTCHAR 031B
ENCODING 795
SWIDTH 0 0
DWIDTH 0 0
BBX 5 4 -6 15
BITMAP
18
18
F8
F0
ENDCHAR
STARTCHAR 0323
ENCODING 803
SWIDTH 0 0
DWIDTH 0 0
BBX 4 3 -4 -6
BITMAP
60
F0
60
ENDCHAR
STARTCHAR 0327
ENCODING 807
SWIDTH 0 0
DWIDTH 0 0
BBX 5 7 -6 -7
BITMAP
40
C0
F8
08
08
F8
F0
ENDCHAR
STARTCHAR 0328
ENCODING 808
SWIDTH 0 0
DWIDTH 0 0
BBX 4 5 -5 -5
BITMAP
60
C0
C0
C0
70
ENDCHAR
STARTCHAR 1E80
ENCODING 7808
SWIDTH 972 0
DWIDTH 27 0
BBX 26 26 1 0
BITMAP
00600000
00300000
00380000
00180000
000C0000
00000000
00000000
C01C00C0
C01E01C0
E01E0180
E03E0180
60360380
60370380
70730300
30730300
30638700
30E18700
38E18600
18C1C600
19C0CE00
19C0CC00
1D80EC00
0D806C00
0F807C00
0F007800
0F003800
ENDCHAR
STARTCHAR 1E81
ENCODING 7809
SWIDTH 792 0
DWIDTH 22 0
BBX 21 22 1 0
BITMAP
038000
018000
01C000
00C000
006000
000000
000000
C07038
C07038
607030
60F030
60D870
70D860
31D860
319C60
318CE0
3B8CC0
1B0EC0
1B06C0
1F0780
0F0780
0E0380
ENDCHAR
STARTCHAR 1E82
ENCODING 7810
SWIDTH 972 0
DWIDTH 27 0
BBX 26 26 1 0
BITMAP
00038000
00030000
00060000
00060000
000C0000
00000000
00000000
C01C00C0
C01E01C0
E01E0180
E03E0180
60360380
60370380
70730300
30730300
30638700
30E18700
38E18600
18C1C600
19C0CE00
19C0CC00
1D80EC00
0D806C00
0F807C00
0F007800
0F003800
ENDCHAR
STARTCHAR 1E83
ENCODING 7811
SWIDTH 792 0
DWIDTH 22 0
BBX 21 22 1 0
BITMAP
000E00
000C00
001800
001800
003000
000000
000000
C07038
C07038
607030
60F030
60D870
70D860
31D860
319C60
318CE0
3B8CC0
1B0EC0
1B06C0
1F0780
0F0780
0E0380
ENDCHAR
STARTCHAR 1E84
ENCODING 7812
SWIDTH 972 0
DWIDTH 27 0
BBX 26 25 1 0
BITMAP
00638000
00738000
00610000
00000000
00000000
00000000
C01C00C0
C01E01C0
E01E0180
E03E0180
60360380
60370380
70730300
30730300
30638700
30E18700
38E18600
18C1C600
19C0CE00
19C0CC00
1D80EC00
0D806C00
0F807C00
0F007800
0F003800
ENDCHAR
STARTCHAR 1E85
ENCODING 7813
SWIDTH 792 0
DWIDTH 22 0
BBX 21 20 1 0
BITMAP
038E00
038E00
010400
000000
000000
C07038
C07038
607030
60F030
60D870
70D860
31D860
319C60
318CE0
3B8CC0
1B0EC0
1B06C0
1F0780
0F0780
0E0380
ENDCHAR
STARTCHAR 1EA0
ENCODING 7840
SWIDTH 648 0
DWIDTH 18 0
BBX 17 25 1 -6
BITMAP
01C000
01C000
03E000
036000
076000
063000
063000
0E3800
0C1800
0C1800
1C1C00
1FFC00
3FFC00
300E00
300600
700700
600300
600300
E00380
000000
000000
000000
01C000
01C000
01C000
ENDCHAR
STARTCHAR 1EA1
ENCODING 7841
SWIDTH 612 0
DWIDTH 17 0
BBX 14 21 1 -6
BITMAP
0F8C
3FCC
386C
703C
601C
E01C
E00C
E00C
E00C
E01C
601C
703C
386C
3FCC
0F8C
0000
0000
0000
0180
0380
0380
ENDCHAR
STARTCHAR 1EA2
ENCODING 7842
SWIDTH 648 0
DWIDTH 18 0
BBX 17 27 1 0
BITMAP
008000
03E000
062000
006000
00E000
01C000
000000
000000
01C000
01C000
03E000
036000
076000
063000
063000
0E3800
0C1800
0C1800
1C1C00
1FFC00
3FFC00
300E00
300600
700700
600300
600300
E00380
ENDCHAR
STARTCHAR 1EA3
ENCODING 7843
SWIDTH 612 0
DWIDTH 17 0
BBX 14 22 1 0
BITMAP
0380
07C0
0440
00C0
0180
0000
0000
0F8C
3FCC
386C
703C
601C
E01C
E00C
E00C
E00C
E01C
601C
703C
386C
3FCC
0F8C
ENDCHAR
STARTCHAR 1EA4
ENCODING 7844
SWIDTH 648 0
DWIDTH 18 0
BBX 17 30 1 0
BITMAP
000380
000300
000700
000600
000C00
01C000
036000
063000
0C1800
000000
000000
01C000
01C000
03E000
036000
076000
063000
063000
0E3800
0C1800
0C1800
1C1C00
1FFC00
3FFC00
300E00
300600
700700
600300
600300
E00380
ENDCHAR
STARTCHAR 1EA5
ENCODING 7845
SWIDTH 612 0
DWIDTH 17 0
BBX 16 25 1 0
BITMAP
0007
0006
000E
000C
0398
0380
06C0
0C60
1830
0000
0F8C
3FCC
386C
703C
601C
E01C
E00C
E00C
E00C
E01C
601C
703C
386C
3FCC
0F8C
ENDCHAR
STARTCHAR 1EA6
ENCODING 7846
SWIDTH 648 0
DWIDTH 18 0
BBX 17 30 1 0
BITMAP
006000
007000
003000
001800
001800
01C000
036000
063000
0C1800
000000
000000
01C000
01C000
03E000
036000
076000
063000
063000
0E3800
0C1800
0C1800
1C1C00
1FFC00
3FFC00
300E00
300600
700700
600300
600300
E00380
ENDCHAR
STARTCHAR 1EA7
ENCODING 7847
SWIDTH 612 0
DWIDTH 17 0
BBX 14 25 1 0
BITMAP
00C0
0060
0060
0030
0398
0380
06C0
0C60
1830
0000
0F8C
3FCC
386C
703C
601C
E01C
E00C
E00C
E00C
E01C
601C
703C
386C
3FCC
0F8C
ENDCHAR
STARTCHAR 1EA8
ENCODING 7848
SWIDTH 648 0
DWIDTH 18 0
BBX 17 30 1 0
BITMAP
001E00
003600
000300
000600
000C00
01C000
036000
063000
0C1800
000000
000000
01C000
01C000
03E000
036000
076000
063000
063000
0E3800
0C1800
0C1800
1C1C00
1FFC00
3FFC00
300E00
300600
700700
600300
600300
E00380
ENDCHAR
STARTCHAR 1EA9
ENCODING 7849
SWIDTH 612 0
DWIDTH 17 0
BBX 15 25 1 0
BITMAP
003C
0066
0006
000C
0398
0380
06C0
0C60
1830
0000
0F8C
3FCC
386C
703C
601C
E01C
E00C
E00C
E00C
E01C
601C
703C
386C
3FCC
0F8C
ENDCHAR
STARTCHAR 1EAA
ENCODING 7850
SWIDTH 648 0
DWIDTH 18 0
BBX 17 29 1 0
BITMAP
079000
04F000
042000
000000
01C000
036000
063000
0C1800
000000
000000
01C000
01C000
03E000
036000
076000
063000
063000
0E3800
0C1800
0C1800
1C1C00
1FFC00
3FFC00
300E00
300600
700700
600300
600300
E00380
ENDCHAR
STARTCHAR 1EAB
ENCODING 7851
SWIDTH 612 0
DWIDTH 17 0
BBX 14 25 1 0
BITMAP
0630
0F20
09E0
0000
0380
0380
06C0
0C60
1830
0000
0F8C
3FCC
386C
703C
601C
E01C
E00C
E00C
E00C
E01C
601C
703C
386C
3FCC
0F8C
ENDCHAR
STARTCHAR 1EAC
ENCODING 7852
SWIDTH 648 0
DWIDTH 18 0
BBX 17 31 1 -6
BITMAP
01C000
036000
063000
0C1800
000000
000000
01C000
01C000
03E000
036000
076000
063000
063000
0E3800
0C1800
0C1800
1C1C00
1FFC00
3FFC00
300E00
300600
700700
600300
600300
E00380
000000
000000
000000
01C000
01C000
01C000
ENDCHAR
STARTCHAR 1EAD
ENCODING 7853
SWIDTH 612 0
DWIDTH 17 0
BBX 14 27 1 -6
BITMAP
0380
0380
06C0
0C60
1830
0000
0F8C
3FCC
386C
703C
601C
E01C
E00C
E00C
E00C
E01C
601C
703C
386C
3FCC
0F8C
0000
0000
0000
0180
0380
0380
ENDCHAR
STARTCHAR 1EAE
ENCODING 7854
SWIDTH 648 0
DWIDTH 18 0
BBX 17 30 1 0
BITMAP
003000
007000
006000
00C000
00C000
0C1800
0E3000
03E000
000000
000000
000000
01C000
01C000
03E000
036000
076000
063000
063000
0E3800
0C1800
0C1800
1C1C00
1FFC00
3FFC00
300E00
300600
700700
600300
600300
E00380
ENDCHAR
STARTCHAR 1EAF
ENCODING 7855
SWIDTH 612 0
DWIDTH 17 0
BBX 14 26 1 0
BITMAP
0070
0060
00E0
00C0
0180
0000
1830
0EE0
07C0
0000
0000
0F8C
3FCC
386C
703C
601C
E01C
E00C
E00C
E00C
E01C
601C
703C
386C
3FCC
0F8C
ENDCHAR
STARTCHAR 1EB0
ENCODING 7856
SWIDTH 648 0
DWIDTH 18 0
BBX 17 30 1 0
BITMAP
060000
070000
030000
018000
018000
0C1800
063000
03E000
000000
000000
000000
01C000
01C000
03E000
036000
076000
063000
063000
0E3800
0C1800
0C1800
1C1C00
1FFC00
3FFC00
300E00
300600
700700
600300
600300
E00380
ENDCHAR
STARTCHAR 1EB1
ENCODING 7857
SWIDTH 612 0
DWIDTH 17 0
BBX 14 26 1 0
BITMAP
1C00
0C00
0600
0600
0300
0000
1830
0EE0
07C0
0000
0000
0F8C
3FCC
386C
703C
601C
E01C
E00C
E00C
E00C
E01C
601C
703C
386C
3FCC
0F8C
ENDCHAR
STARTCHAR 1EB2
ENCODING 7858
SWIDTH 648 0
DWIDTH 18 0
BBX 17 31 1 0
BITMAP
008000
03E000
022000
002000
006000
00C000
0C1800
0E3000
03E000
000000
000000
000000
01C000
01C000
03E000
036000
076000
063000
063000
0E3800
0C1800
0C1800
1C1C00
1FFC00
3FFC00
300E00
300600
700700
600300
600300
E00380
ENDCHAR
STARTCHAR 1EB3
ENCODING 7859
SWIDTH 612 0
DWIDTH 17 0
BBX 14 26 1 0
BITMAP
0380
07C0
0440
0040
0180
0000
1830
0EE0
07C0
0000
0000
0F8C
3FCC
386C
703C
601C
E01C
E00C
E00C
E00C
E01C
601C
703C
386C
3FCC
0F8C
ENDCHAR
STARTCHAR 1EB4
ENCODING 7860
SWIDTH 648 0
DWIDTH 18 0
BBX 17 29 1 0
BITMAP
071000
07F000
0C7000
000000
0C1800
0E3000
03E000
000000
000000
000000
01C000
01C000
03E000
036000
076000
063000
063000
0E3800
0C1800
0C1800
1C1C00
1FFC00
3FFC00
300E00
300600
700700
600300
600300
E00380
ENDCHAR
STARTCHAR 1EB5
ENCODING 7861
SWIDTH 612 0
DWIDTH 17 0
BBX 14 24 1 0
BITMAP
0F20
0FE0
08C0
0000
1830
0EE0
07C0
0000
0000
0F8C
3FCC
386C
703C
601C
E01C
E00C
E00C
E00C
E01C
601C
703C
386C
3FCC
0F8C
ENDCHAR
STARTCHAR 1EB6
ENCODING 7862
SWIDTH 648 0
DWIDTH 18 0
BBX 17 31 1 -6
BITMAP
0C1800
0E3000
03E000
000000
000000
000000
01C000
01C000
03E000
036000
076000
063000
063000
0E3800
0C1800
0C1800
1C1C00
1FFC00
3FFC00
300E00
300600
700700
600300
600300
E00380
000000
000000
000000
01C000
01C000
01C000
ENDCHAR
STARTCHAR 1EB7
ENCODING 7863
SWIDTH 612 0
DWIDTH 17 0
BBX 14 26 1 -6
BITMAP
1830
0EE0
07C0
0000
0000
0F8C
3FCC
386C
703C
601C
E01C
E00C
E00C
E00C
E01C
601C
703C
386C
3FCC
0F8C
0000
0000
0000
0180
0380
0380
ENDCHAR
STARTCHAR 1EB8
ENCODING 7864
SWIDTH 540 0
DWIDTH 15 0
BBX 12 25 2 -6
BITMAP
FFF0
FFF0
E000
E000
E000
E000
E000
E000
FFE0
FFE0
E000
E000
E000
E000
E000
E000
E000
FFF0
FFF0
0000
0000
0000
0600
0700
0600
ENDCHAR
STARTCHAR 1EB9
ENCODING 7865
SWIDTH 576 0
DWIDTH 16 0
BBX 14 21 1 -6
BITMAP
0FC0
1FF0
3830
7018
6018
601C
E01C
FFFC
E000
6000
6000
7018
3838
1FF0
0FC0
0000
0000
0000
0300
0380
0380
ENDCHAR
STARTCHAR 1EBA
ENCODING 7866
SWIDTH 540 0
DWIDTH 15 0
BBX 12 27 2 0
BITMAP
0200
0F80
1980
0180
0300
0600
0000
0000
FFF0
FFF0
E000
E000
E000
E000
E000
E000
FFE0
FFE0
E000
E000
E000
E000
E000
E000
E000
FFF0
FFF0
ENDCHAR
STARTCHAR 1EBB
ENCODING 7867
SWIDTH 576 0
DWIDTH 16 0
BBX 14 22 1 0
BITMAP
0380
07C0
0CC0
00C0
0180
0000
0000
0FC0
1FF0
3830
7018
6018
601C
E01C
FFFC
E000
6000
6000
7018
3838
1FF0
0FC0
ENDCHAR
STARTCHAR 1EBC
ENCODING 7868
SWIDTH 540 0
DWIDTH 15 0
BBX 12 25 2 0
BITMAP
1C40
3FC0
3380
0000
0000
0000
FFF0
FFF0
E000
E000
E000
E000
E000
E000
FFE0
FFE0
E000
E000
E000
E000
E000
E000
E000
FFF0
FFF0
ENDCHAR
STARTCHAR 1EBD
ENCODING 7869
SWIDTH 576 0
DWIDTH 16 0
BBX 14 20 1 0
BITMAP
0F20
1BE0
18C0
0000
0000
0FC0
1FF0
3830
7018
6018
601C
E01C
FFFC
E000
6000
6000
7018
3838
1FF0
0FC0
ENDCHAR
STARTCHAR 1EBE
ENCODING 7870
SWIDTH 540 0
DWIDTH 15 0
BBX 15 30 2 0
BITMAP
000E
001C
0018
0038
0030
0F00
1F80
39C0
30E0
0000
0000
FFF0
FFF0
E000
E000
E000
E000
E000
E000
FFE0
FFE0
E000
E000
E000
E000
E000
E000
E000
FFF0
FFF0
ENDCHAR
STARTCHAR 1EBF
ENCODING 7871
SWIDTH 576 0
DWIDTH 16 0
BBX 16 25 1 0
BITMAP
0007
0006
000C
001C
0318
0780
0EC0
0C60
1830
0000
0FC0
1FF0
3830
7018
6018
601C
E01C
FFFC
E000
6000
6000
7018
3838
1FF0
0FC0
ENDCHAR
STARTCHAR 1EC0
ENCODING 7872
SWIDTH 540 0
DWIDTH 15 0
BBX 12 30 2 0
BITMAP
0380
0180
00C0
00C0
0060
0F00
1F80
39C0
30E0
0000
0000
FFF0
FFF0
E000
E000
E000
E000
E000
E000
FFE0
FFE0
E000
E000
E000
E000
E000
E000
E000
FFF0
FFF0
ENDCHAR
STARTCHAR 1EC1
ENCODING 7873
SWIDTH 576 0
DWIDTH 16 0
BBX 14 25 1 0
BITMAP
00C0
00E0
0060
0030
0330
0780
0EC0
0C60
1830
0000
0FC0
1FF0
3830
7018
6018
601C
E01C
FFFC
E000
6000
6000
7018
3838
1FF0
0FC0
ENDCHAR
STARTCHAR 1EC2
ENCODING 7874
SWIDTH 540 0
DWIDTH 15 0
BBX 13 30 2 0
BITMAP
00F0
00D8
0008
0018
0030
0F00
1F80
39C0
30E0
0000
0000
FFF0
FFF0
E000
E000
E000
E000
E000
E000
FFE0
FFE0
E000
E000
E000
E000
E000
E000
E000
FFF0
FFF0
ENDCHAR
STARTCHAR 1EC3
ENCODING 7875
SWIDTH 576 0
DWIDTH 16 0
BBX 14 25 1 0
BITMAP
007C
006C
0004
000C
0318
0780
0EC0
0C60
1830
0000
0FC0
1FF0
3830
7018
6018
601C
E01C
FFFC
E000
6000
6000
7018
3838
1FF0
0FC0
ENDCHAR
STARTCHAR 1EC4
ENCODING 7876
SWIDTH 540 0
DWIDTH 15 0
BBX 12 29 2 0
BITMAP
1EC0
37C0
3100
0000
0F00
1F80
39C0
30E0
0000
0000
FFF0
FFF0
E000
E000
E000
E000
E000
E000
FFE0
FFE0
E000
E000
E000
E000
E000
E000
E000
FFF0
FFF0
ENDCHAR
STARTCHAR 1EC5
ENCODING 7877
SWIDTH 576 0
DWIDTH 16 0
BBX 14 25 1 0
BITMAP
0620
0F60
19E0
0000
0300
0780
0EC0
0C60
1830
0000
0FC0
1FF0
3830
7018
6018
601C
E01C
FFFC
E000
6000
6000
7018
3838
1FF0
0FC0
ENDCHAR
STARTCHAR 1EC6
ENCODING 7878
SWIDTH 540 0
DWIDTH 15 0
BBX 12 31 2 -6
BITMAP
0F00
1F80
39C0
30E0
0000
0000
FFF0
FFF0
E000
E000
E000
E000
E000
E000
FFE0
FFE0
E000
E000
E000
E000
E000
E000
E000
FFF0
FFF0
0000
0000
0000
0600
0700
0600
ENDCHAR
STARTCHAR 1EC7
ENCODING 7879
SWIDTH 576 0
DWIDTH 16 0
BBX 14 27 1 -6
BITMAP
0300
0780
0EC0
0C60
1830
0000
0FC0
1FF0
3830
7018
6018
601C
E01C
FFFC
E000
6000
6000
7018
3838
1FF0
0FC0
0000
0000
0000
0300
0380
0380
ENDCHAR
STARTCHAR 1EC8
ENCODING 7880
SWIDTH 216 0
DWIDTH 6 0
BBX 6 27 0 0
BITMAP
10
7C
C4
0C
1C
30
00
00
38
38
38
38
38
38
38
38
38
38
38
38
38
38
38
38
38
38
38
ENDCHAR
STARTCHAR 1EC9
ENCODING 7881
SWIDTH 216 0
DWIDTH 6 0
BBX 5 22 1 0
BITMAP
70
F8
88
18
30
00
00
70
70
70
70
70
70
70
70
70
70
70
70
70
70
70
ENDCHAR
STARTCHAR 1ECA
ENCODING 7882
SWIDTH 216 0
DWIDTH 6 0
BBX 3 25 2 -6
BITMAP
E0
E0
E0
E0
E0
E0
E0
E0
E0
E0
E0
E0
E0
E0
E0
E0
E0
E0
E0
00
00
00
C0
E0
E0
ENDCHAR
STARTCHAR 1ECB
ENCODING 7883
SWIDTH 216 0
DWIDTH 6 0
BBX 3 26 2 -6
BITMAP
E0
E0
40
00
00
E0
E0
E0
E0
E0
E0
E0
E0
E0
E0
E0
E0
E0
E0
E0
00
00
00
C0
E0
E0
ENDCHAR
STARTCHAR 1ECC
ENCODING 7884
SWIDTH 720 0
DWIDTH 20 0
BBX 18 26 1 -6
BITMAP
01F000
0FFC00
1F3E00
3C0700
380380
700380
700180
6001C0
E001C0
E001C0
E001C0
E001C0
6001C0
6001C0
700180
700380
380700
1E0F00
0FFE00
03F800
000000
000000
000000
00C000
00E000
00E000
ENDCHAR
STARTCHAR 1ECD
ENCODING 7885
SWIDTH 576 0
DWIDTH 16 0
BBX 14 21 1 -6
BITMAP
07C0
1FF0
3878
7038
601C
601C
E00C
E00C
E00C
601C
601C
7018
3878
1FF0
0FC0
0000
0000
0000
0300
0380
0380
ENDCHAR
STARTCHAR 1ECE
ENCODING 7886
SWIDTH 720 0
DWIDTH 20 0
BBX 18 27 1 0
BITMAP
004000
01F000
033000
003000
006000
00C000
000000
01F000
0FFC00
1F3E00
3C0700
380380
700380
700180
6001C0
E001C0
E001C0
E001C0
E001C0
6001C0
6001C0
700180
700380
380700
1E0F00
0FFE00
03F800
ENDCHAR
STARTCHAR 1ECF
ENCODING 7887
SWIDTH 576 0
DWIDTH 16 0
BBX 14 22 1 0
BITMAP
0380
07C0
0CC0
00C0
0180
0000
0000
07C0
1FF0
3878
7038
601C
601C
E00C
E00C
E00C
601C
601C
7018
3878
1FF0
0FC0
ENDCHAR
STARTCHAR 1ED0
ENCODING 7888
SWIDTH 720 0
DWIDTH 20 0
BBX 18 30 1 0
BITMAP
0001C0
000180
000300
000300
000600
01E000
01B000
033800
061C00
000000
01F000
0FFC00
1F3E00
3C0700
380380
700380
700180
6001C0
E001C0
E001C0
E001C0
E001C0
6001C0
6001C0
700180
700380
380700
1E0F00
0FFE00
03F800
ENDCHAR
STARTCHAR 1ED1
ENCODING 7889
SWIDTH 576 0
DWIDTH 16 0
BBX 16 25 1 0
BITMAP
0007
0006
000C
001C
0318
0780
0EC0
0C60
1830
0000
07C0
1FF0
3878
7038
601C
601C
E00C
E00C
E00C
601C
601C
7018
3878
1FF0
0FC0
ENDCHAR
STARTCHAR 1ED2
ENCODING 7890
SWIDTH 720 0
DWIDTH 20 0
BBX 18 30 1 0
BITMAP
007000
003000
001800
001C00
000C00
01E000
01F000
033800
061C00
000000
01F000
0FFC00
1F3E00
3C0700
380380
700380
700180
6001C0
E001C0
E001C0
E001C0
E001C0
6001C0
6001C0
700180
700380
380700
1E0F00
0FFE00
03F800
ENDCHAR
STARTCHAR 1ED3
ENCODING 7891
SWIDTH 576 0
DWIDTH 16 0
BBX 14 25 1 0
BITMAP
00C0
00E0
0060
0030
0330
0780
0EC0
1C60
1830
0000
07C0
1FF0
3878
7038
601C
601C
E00C
E00C
E00C
601C
601C
7018
3878
1FF0
0FC0
ENDCHAR
STARTCHAR 1ED4
ENCODING 7892
SWIDTH 720 0
DWIDTH 20 0
BBX 18 30 1 0
BITMAP
000F00
001B00
000100
000300
000600
01E000
01B000
033800
061C00
000000
01F000
0FFC00
1F3E00
3C0700
380380
700380
700180
6001C0
E001C0
E001C0
E001C0
E001C0
6001C0
6001C0
700180
700380
380700
1E0F00
0FFE00
03F800
ENDCHAR
STARTCHAR 1ED5
ENCODING 7893
SWIDTH 576 0
DWIDTH 16 0
BBX 14 25 1 0
BITMAP
007C
006C
0004
000C
0318
0780
0EC0
0C60
1830
0000
07C0
1FF0
3878
7038
601C
601C
E00C
E00C
E00C
601C
601C
7018
3878
1FF0
0FC0
ENDCHAR
STARTCHAR 1ED6
ENCODING 7894
SWIDTH 720 0
DWIDTH 20 0
BBX 18 29 1 0
BITMAP
03C800
06F800
062000
000000
01E000
01B000
033800
061C00
000000
01F000
0FFC00
1F3E00
3C0700
380380
700380
700180
6001C0
E001C0
E001C0
E001C0
E001C0
6001C0
6001C0
700180
700380
380700
1E0F00
0FFE00
03F800
ENDCHAR
STARTCHAR 1ED7
ENCODING 7895
SWIDTH 576 0
DWIDTH 16 0
BBX 14 25 1 0
BITMAP
0620
0F60
19E0
0000
0300
0780
0EC0
0C60
1830
0000
07C0
1FF0
3878
7038
601C
601C
E00C
E00C
E00C
601C
601C
7018
3878
1FF0
0FC0
ENDCHAR
STARTCHAR 1ED8
ENCODING 7896
SWIDTH 720 0
DWIDTH 20 0
BBX 18 31 1 -6
BITMAP
01E000
01B000
033800
061C00
000000
01F000
0FFC00
1F3E00
3C0700
380380
700380
700180
6001C0
E001C0
E001C0
E001C0
E001C0
6001C0
6001C0
700180
700380
380700
1E0F00
0FFE00
03F800
000000
000000
000000
00C000
00E000
00E000
ENDCHAR
STARTCHAR 1ED9
ENCODING 7897
SWIDTH 576 0
DWIDTH 16 0
BBX 14 27 1 -6
BITMAP
0300
0780
0EC0
0C60
1830
0000
07C0
1FF0
3878
7038
601C
601C
E00C
E00C
E00C
601C
601C
7018
3878
1FF0
0FC0
0000
0000
0000
0300
0380
0380
ENDCHAR
STARTCHAR 1EDA
ENCODING 7898
SWIDTH 720 0
DWIDTH 20 0
BBX 18 26 1 0
BITMAP
001800
003000
007000
006000
00C180
000180
01F700
0FFE00
1F3E00
3C0700
380380
700380
700180
6001C0
E001C0
E001C0
E001C0
E001C0
6001C0
6001C0
700180
700380
380700
1E0F00
0FFE00
03F800
ENDCHAR
STARTCHAR 1EDB
ENCODING 7899
SWIDTH 576 0
DWIDTH 16 0
BBX 14 22 1 0
BITMAP
0070
0060
00C0
01C0
0180
000C
000C
07FC
1FF0
3878
7038
601C
601C
E00C
E00C
E00C
601C
601C
7018
3878
1FF0
0FC0
ENDCHAR
STARTCHAR 1EDC
ENCODING 7900
SWIDTH 720 0
DWIDTH 20 0
BBX 18 26 1 0
BITMAP
070000
030000
018000
01C000
00C180
000180
01F700
0FFE00
1F3E00
3C0700
380380
700380
700180
6001C0
E001C0
E001C0
E001C0
E001C0
6001C0
6001C0
700180
700380
380700
1E0F00
0FFE00
03F800
ENDCHAR
STARTCHAR 1EDD
ENCODING 7901
SWIDTH 576 0
DWIDTH 16 0
BBX 14 22 1 0
BITMAP
1800
0C00
0E00
0600
0300
000C
000C
07FC
1FF0
3878
7038
601C
601C
E00C
E00C
E00C
601C
601C
7018
3878
1FF0
0FC0
ENDCHAR
STARTCHAR 1EDE
ENCODING 7902
SWIDTH 720 0
DWIDTH 20 0
BBX 18 27 1 0
BITMAP
004000
01F000
033000
003000
006000
00C180
000180
01F700
0FFE00
1F3E00
3C0700
380380
700380
700180
6001C0
E001C0
E001C0
E001C0
E001C0
6001C0
6001C0
700180
700380
380700
1E0F00
0FFE00
03F800
ENDCHAR
STARTCHAR 1EDF
ENCODING 7903
SWIDTH 576 0
DWIDTH 16 0
BBX 14 22 1 0
BITMAP
0380
07C0
0CC0
00C0
0180
000C
000C
07FC
1FF0
3878
7038
601C
601C
E00C
E00C
E00C
601C
601C
7018
3878
1FF0
0FC0
ENDCHAR
STARTCHAR 1EE0
ENCODING 7904
SWIDTH 720 0
DWIDTH 20 0
BBX 18 25 1 0
BITMAP
038800
07F800
067000
000180
000180
01F700
0FFE00
1F3E00
3C0700
380380
700380
700180
6001C0
E001C0
E001C0
E001C0
E001C0
6001C0
6001C0
700180
700380
380700
1E0F00
0FFE00
03F800
ENDCHAR
STARTCHAR 1EE1
ENCODING 7905
SWIDTH 576 0
DWIDTH 16 0
BBX 14 20 1 0
BITMAP
0F20
1BE0
18C0
000C
000C
07FC
1FF0
3878
7038
601C
601C
E00C
E00C
E00C
601C
601C
7018
3878
1FF0
0FC0
ENDCHAR
STARTCHAR 1EE2
ENCODING 7906
SWIDTH 720 0
DWIDTH 20 0
BBX 18 28 1 -6
BITMAP
000180
000180
01F700
0FFE00
1F3E00
3C0700
380380
700380
700180
6001C0
E001C0
E001C0
E001C0
E001C0
6001C0
6001C0
700180
700380
380700
1E0F00
0FFE00
03F800
000000
000000
000000
00C000
00E000
00E000
ENDCHAR
STARTCHAR 1EE3
ENCODING 7907
SWIDTH 576 0
DWIDTH 16 0
BBX 14 23 1 -6
BITMAP
000C
000C
07FC
1FF0
3878
7038
601C
601C
E00C
E00C
E00C
601C
601C
7018
3878
1FF0
0FC0
0000
0000
0000
0300
0380
0380
ENDCHAR
STARTCHAR 1EE4
ENCODING 7908
SWIDTH 684 0
DWIDTH 19 0
BBX 15 25 2 -6
BITMAP
C006
C006
C006
C006
C006
C006
C006
C006
C006
C006
C006
C006
C006
E00E
E00E
701C
783C
3FF8
0FE0
0000
0000
0000
0380
0380
0380
ENDCHAR
STARTCHAR 1EE5
ENCODING 7909
SWIDTH 576 0
DWIDTH 16 0
BBX 13 21 2 -6
BITMAP
C038
C038
C038
C038
C038
C038
C038
C038
C038
E038
E038
E038
7078
7FB8
1F38
0000
0000
0000
0600
0700
0600
ENDCHAR
STARTCHAR 1EE6
ENCODING 7910
SWIDTH 684 0
DWIDTH 19 0
BBX 15 27 2 0
BITMAP
0100
07C0
0440
0040
00C0
0180
0000
0000
C006
C006
C006
C006
C006
C006
C006
C006
C006
C006
C006
C006
C006
E00E
E00E
701C
783C
3FF8
0FE0
ENDCHAR
STARTCHAR 1EE7
ENCODING 7911
SWIDTH 576 0
DWIDTH 16 0
BBX 13 22 2 0
BITMAP
0700
1F80
1980
0180
0300
0000
0000
C038
C038
C038
C038
C038
C038
C038
C038
C038
E038
E038
E038
7078
7FB8
1F38
ENDCHAR
STARTCHAR 1EE8
ENCODING 7912
SWIDTH 684 0
DWIDTH 19 0
BBX 18 26 2 0
BITMAP
006000
00E000
00C000
018000
0180C0
0000C0
0001C0
C00780
C00600
C00600
C00600
C00600
C00600
C00600
C00600
C00600
C00600
C00600
C00600
C00600
E00E00
E00E00
701C00
783C00
3FF800
0FE000
ENDCHAR
STARTCHAR 1EE9
ENCODING 7913
SWIDTH 576 0
DWIDTH 16 0
BBX 16 22 2 0
BITMAP
00C0
01C0
0180
0300
0300
0003
0003
C03E
C03C
C038
C038
C038
C038
C038
C038
C038
E038
E038
E038
7078
7FB8
1F38
ENDCHAR
STARTCHAR 1EEA
ENCODING 7914
SWIDTH 684 0
DWIDTH 19 0
BBX 18 26 2 0
BITMAP
0C0000
0E0000
060000
030000
0300C0
0000C0
0001C0
C00780
C00600
C00600
C00600
C00600
C00600
C00600
C00600
C00600
C00600
C00600
C00600
C00600
E00E00
E00E00
701C00
783C00
3FF800
0FE000
ENDCHAR
STARTCHAR 1EEB
ENCODING 7915
SWIDTH 576 0
DWIDTH 16 0
BBX 16 22 2 0
BITMAP
3000
3800
1800
0C00
0C00
0003
0003
C03E
C03C
C038
C038
C038
C038
C038
C038
C038
E038
E038
E038
7078
7FB8
1F38
ENDCHAR
STARTCHAR 1EEC
ENCODING 7916
SWIDTH 684 0
DWIDTH 19 0
BBX 18 27 2 0
BITMAP
010000
07C000
044000
004000
00C000
0180C0
0000C0
0001C0
C00780
C00600
C00600
C00600
C00600
C00600
C00600
C00600
C00600
C00600
C00600
C00600
C00600
E00E00
E00E00
701C00
783C00
3FF800
0FE000
ENDCHAR
STARTCHAR 1EED
ENCODING 7917
SWIDTH 576 0
DWIDTH 16 0
BBX 16 22 2 0
BITMAP
0700
1F80
1980
0180
0300
0003
0003
C03E
C03C
C038
C038
C038
C038
C038
C038
C038
E038
E038
E038
7078
7FB8
1F38
ENDCHAR
STARTCHAR 1EEE
ENCODING 7918
SWIDTH 684 0
DWIDTH 19 0
BBX 18 25 2 0
BITMAP
0F2000
0FE000
08E000
0000C0
0000C0
0001C0
C00780
C00600
C00600
C00600
C00600
C00600
C00600
C00600
C00600
C00600
C00600
C00600
C00600
E00E00
E00E00
701C00
783C00
3FF800
0FE000
ENDCHAR
STARTCHAR 1EEF
ENCODING 7919
SWIDTH 576 0
DWIDTH 16 0
BBX 16 20 2 0
BITMAP
1E40
1FC0
3180
0003
0003
C03E
C03C
C038
C038
C038
C038
C038
C038
C038
E038
E038
E038
7078
7FB8
1F38
ENDCHAR
STARTCHAR 1EF0
ENCODING 7920
SWIDTH 684 0
DWIDTH 19 0
BBX 18 28 2 -6
BITMAP
0000C0
0000C0
0001C0
C00780
C00600
C00600
C00600
C00600
C00600
C00600
C00600
C00600
C00600
C00600
C00600
C00600
E00E00
E00E00
701C00
783C00
3FF800
0FE000
000000
000000
000000
038000
038000
038000
ENDCHAR
STARTCHAR 1EF1
ENCODING 7921
SWIDTH 576 0
DWIDTH 16 0
BBX 16 23 2 -6
BITMAP
0003
0003
C03E
C03C
C038
C038
C038
C038
C038
C038
C038
E038
E038
E038
7078
7FB8
1F38
0000
0000
0000
0600
0700
0600
ENDCHAR
STARTCHAR 1EF2
ENCODING 7922
SWIDTH 612 0
DWIDTH 17 0
BBX 15 26 1 0
BITMAP
0C00
0E00
0600
0300
0300
0000
0000
E00E
701C
701C
3838
3838
1C70
1C60
0EE0
06C0
07C0
0380
0380
0380
0380
0380
0380
0380
0380
0380
ENDCHAR
STARTCHAR 1EF3
ENCODING 7923
SWIDTH 504 0
DWIDTH 14 0
BBX 13 28 1 -6
BITMAP
3800
1800
1C00
0C00
0600
0000
0000
C018
E038
6030
6030
7070
3060
38E0
18C0
18C0
1DC0
0D80
0D80
0700
0700
0700
0600
0E00
0C00
1C00
F800
E000
ENDCHAR
STARTCHAR 1EF4
ENCODING 7924
SWIDTH 612 0
DWIDTH 17 0
BBX 15 25 1 -6
BITMAP
E00E
701C
701C
3838
3838
1C70
1C60
0EE0
06C0
07C0
0380
0380
0380
0380
0380
0380
0380
0380
0380
0000
0000
0000
0380
0380
0380
ENDCHAR
STARTCHAR 1EF5
ENCODING 7925
SWIDTH 504 0
DWIDTH 14 0
BBX 13 21 1 -6
BITMAP
C018
E038
6030
6030
7070
3060
38E0
18C0
18C0
1DC0
0D80
0D80
0700
0700
0700
0600
0E00
0C00
1C70
F870
E070
ENDCHAR
STARTCHAR 1EF6
ENCODING 7926
SWIDTH 612 0
DWIDTH 17 0
BBX 15 27 1 0
BITMAP
0100
07C0
0440
0040
00C0
0180
0000
0000
E00E
701C
701C
3838
3838
1C70
1C60
0EE0
06C0
07C0
0380
0380
0380
0380
0380
0380
0380
0380
0380
ENDCHAR
STARTCHAR 1EF7
ENCODING 7927
SWIDTH 504 0
DWIDTH 14 0
BBX 13 28 1 -6
BITMAP
0700
0F80
0880
0180
0300
0000
0000
C018
E038
6030
6030
7070
3060
38E0
18C0
18C0
1DC0
0D80
0D80
0700
0700
0700
0600
0E00
0C00
1C00
F800
E000
ENDCHAR
STARTCHAR 1EF8
ENCODING 7928
SWIDTH 612 0
DWIDTH 17 0
BBX 15 25 1 0
BITMAP
0F20
0FE0
18C0
0000
0000
0000
E00E
701C
701C
3838
3838
1C70
1C60
0EE0
06C0
07C0
0380
0380
0380
0380
0380
0380
0380
0380
0380
ENDCHAR
STARTCHAR 1EF9
ENCODING 7929
SWIDTH 504 0
DWIDTH 14 0
BBX 13 26 1 -6
BITMAP
1E40
1FC0
3180
0000
0000
C018
E038
6030
6030
7070
3060
38E0
18C0
18C0
1DC0
0D80
0D80
0700
0700
0700
0600
0E00
0C00
1C00
F800
E000
ENDCHAR
STARTCHAR 2013
ENCODING 8211
SWIDTH 648 0
DWIDTH 18 0
BBX 12 2 3 8
BITMAP
FFF0
FFF0
ENDCHAR
STARTCHAR 2014
ENCODING 8212
SWIDTH 756 0
DWIDTH 21 0
BBX 15 2 3 8
BITMAP
FFFE
FFFE
ENDCHAR
STARTCHAR 2018
ENCODING 8216
SWIDTH 288 0
DWIDTH 8 0
BBX 4 7 2 14
BITMAP
20
40
C0
C0
F0
F0
70
ENDCHAR
STARTCHAR 2019
ENCODING 8217
SWIDTH 252 0
DWIDTH 7 0
BBX 4 7 2 13
BITMAP
60
F0
70
10
10
20
60
ENDCHAR
STARTCHAR 201A
ENCODING 8218
SWIDTH 288 0
DWIDTH 8 0
BBX 4 7 2 -4
BITMAP
60
F0
F0
30
30
20
40
ENDCHAR
STARTCHAR 201C
ENCODING 8220
SWIDTH 504 0
DWIDTH 14 0
BBX 10 7 2 14
BITMAP
20C0
4180
C100
C300
F3C0
F1C0
71C0
ENDCHAR
STARTCHAR 201D
ENCODING 8221
SWIDTH 504 0
DWIDTH 14 0
BBX 10 7 2 13
BITMAP
F1C0
F3C0
71C0
1040
3040
2080
4100
ENDCHAR
STARTCHAR 201E
ENCODING 8222
SWIDTH 504 0
DWIDTH 14 0
BBX 10 7 2 -4
BITMAP
6180
F3C0
F3C0
30C0
3040
2080
4180
ENDCHAR
STARTCHAR 2020
ENCODING 8224
SWIDTH 576 0
DWIDTH 16 0
BBX 11 25 3 -6
BITMAP
0C00
0C00
0C00
0C00
FFE0
FFE0
FFE0
0C00
0C00
0C00
0C00
0C00
0C00
0C00
0C00
0C00
0C00
0C00
0C00
0C00
0C00
0C00
0C00
0C00
0C00
ENDCHAR
STARTCHAR 2021
ENCODING 8225
SWIDTH 576 0
DWIDTH 16 0
BBX 11 25 3 -6
BITMAP
0C00
0C00
0C00
0C00
FFE0
FFE0
FFE0
0C00
0C00
0C00
0C00
0C00
0C00
0C00
0C00
0C00
0C00
0C00
0C00
FFE0
FFE0
0C00
0C00
0C00
0C00
ENDCHAR
STARTCHAR 2022
ENCODING 8226
SWIDTH 360 0
DWIDTH 10 0
BBX 5 5 2 8
BITMAP
70
F8
F8
F8
78
ENDCHAR
STARTCHAR 2026
ENCODING 8230
SWIDTH 792 0
DWIDTH 22 0
BBX 17 3 2 0
BITMAP
60C180
E1C380
E1C180
ENDCHAR
STARTCHAR 2030
ENCODING 8240
SWIDTH 1188 0
DWIDTH 33 0
BBX 31 20 1 0
BITMAP
38000000
7C030000
C6070000
C2060000
C20E0000
C60C0000
C61C0000
7C180000
00300000
00300000
00600000
00600000
00C0E038
00C3F07C
018318C6
018318C6
030218C6
030318C6
060318C6
0601F07C
ENDCHAR
STARTCHAR 2039
ENCODING 8249
SWIDTH 360 0
DWIDTH 10 0
BBX 8 12 1 3
BITMAP
07
06
0C
18
30
60
E0
70
38
1C
0E
07
ENDCHAR
STARTCHAR 203A
ENCODING 8250
SWIDTH 360 0
DWIDTH 10 0
BBX 8 12 1 3
BITMAP
E0
70
38
1C
0E
06
07
0E
1C
38
30
60
ENDCHAR
STARTCHAR 2044
ENCODING 8260
SWIDTH 468 0
DWIDTH 13 0
BBX 13 19 0 0
BITMAP
0018
0030
0070
0060
00C0
00C0
0180
0380
0300
0600
0600
0C00
1C00
1800
3000
3000
6000
E000
C000
ENDCHAR
STARTCHAR 2070
ENCODING 8304
SWIDTH 324 0
DWIDTH 9 0
BBX 8 11 1 10
BITMAP
3C
66
C6
C2
C3
C3
C2
C6
C6
7C
10
ENDCHAR
STARTCHAR 2074
ENCODING 8308
SWIDTH 324 0
DWIDTH 9 0
BBX 7 10 1 11
BITMAP
0C
1C
3C
2C
4C
CC
FE
FE
0C
0C
ENDCHAR
STARTCHAR 2075
ENCODING 8309
SWIDTH 288 0
DWIDTH 8 0
BBX 7 10 1 11
BITMAP
FC
80
80
B8
FC
C6
06
86
C6
7C
ENDCHAR
STARTCHAR 2076
ENCODING 8310
SWIDTH 288 0
DWIDTH 8 0
BBX 7 10 1 11
BITMAP
10
30
60
40
FC
C6
86
86
C6
7C
ENDCHAR
STARTCHAR 2077
ENCODING 8311
SWIDTH 288 0
DWIDTH 8 0
BBX 6 10 1 11
BITMAP
FC
04
0C
0C
08
18
10
30
20
60
ENDCHAR
STARTCHAR 2078
ENCODING 8312
SWIDTH 324 0
DWIDTH 9 0
BBX 7 11 1 10
BITMAP
7C
C6
C6
C6
7C
7C
C6
82
C6
FC
10
ENDCHAR
STARTCHAR 2079
ENCODING 8313
SWIDTH 288 0
DWIDTH 8 0
BBX 7 10 1 11
BITMAP
7C
CC
86
86
C6
EE
34
0C
18
30
ENDCHAR
STARTCHAR 2080
ENCODING 8320
SWIDTH 324 0
DWIDTH 9 0
BBX 8 11 1 -7
BITMAP
38
7C
C6
C2
C2
83
C2
C2
C6
6E
38
ENDCHAR
STARTCHAR 2081
ENCODING 8321
SWIDTH 252 0
DWIDTH 7 0
BBX 5 10 1 -7
BITMAP
60
E0
A0
20
20
20
20
20
20
F8
ENDCHAR
STARTCHAR 2082
ENCODING 8322
SWIDTH 288 0
DWIDTH 8 0
BBX 7 11 1 -7
BITMAP
30
7C
C4
86
04
0C
18
30
60
C0
FE
ENDCHAR
STARTCHAR 2083
ENCODING 8323
SWIDTH 288 0
DWIDTH 8 0
BBX 7 11 1 -7
BITMAP
38
7C
C6
06
06
38
06
06
86
EE
7C
ENDCHAR
STARTCHAR 2084
ENCODING 8324
SWIDTH 324 0
DWIDTH 9 0
BBX 7 10 1 -7
BITMAP
1C
1C
3C
6C
4C
CC
FE
FE
0C
0C
ENDCHAR
STARTCHAR 2085
ENCODING 8325
SWIDTH 288 0
DWIDTH 8 0
BBX 7 10 1 -7
BITMAP
FC
80
80
BC
CE
06
06
C6
EC
78
ENDCHAR
STARTCHAR 2086
ENCODING 8326
SWIDTH 288 0
DWIDTH 8 0
BBX 7 11 1 -7
BITMAP
18
30
20
60
78
EC
C6
86
86
CC
78
ENDCHAR
STARTCHAR 2087
ENCODING 8327
SWIDTH 288 0
DWIDTH 8 0
BBX 6 10 1 -7
BITMAP
FC
04
0C
08
18
18
10
30
20
60
ENDCHAR
STARTCHAR 2088
ENCODING 8328
SWIDTH 324 0
DWIDTH 9 0
BBX 7 11 1 -7
BITMAP
38
7C
C6
C6
C6
7C
C6
82
82
CE
7C
ENDCHAR
STARTCHAR 2089
ENCODING 8329
SWIDTH 288 0
DWIDTH 8 0
BBX 7 11 1 -7
BITMAP
10
7C
C6
86
86
C6
7C
0C
08
18
30
ENDCHAR
STARTCHAR 20AB
ENCODING 8363
SWIDTH 576 0
DWIDTH 16 0
BBX 15 23 1 0
BITMAP
0018
0018
01FE
01FE
0018
0F18
3FD8
7CF8
7038
E038
E018
C018
C018
E018
E038
7038
7FF8
3FD8
0000
0000
0000
3FFC
3FFC
ENDCHAR
STARTCHAR 20AC
ENCODING 8364
SWIDTH 684 0
DWIDTH 19 0
BBX 18 19 0 0
BITMAP
01FC00
03FF00
070780
0E0180
0C01C0
1C00C0
1C0000
FFE000
180000
180000
180000
FFE000
1C0000
1C00C0
0C01C0
0E0380
078780
03FF00
01FC00
ENDCHAR
STARTCHAR 2122
ENCODING 8482
SWIDTH 360 0
DWIDTH 10 0
BBX 9 4 1 15
BITMAP
ED80
4F80
4A80
4880
ENDCHAR
STARTCHAR 215B
ENCODING 8539
SWIDTH 864 0
DWIDTH 24 0
BBX 23 19 1 0
BITMAP
7000C0
F00180
B00380
300300
300600
300600
300C00
301C00
FC1800
003078
0030FC
0060C6
00E0C4
00C07C
01807C
0180C6
030086
0700EE
06007C
ENDCHAR
STARTCHAR 215C
ENCODING 8540
SWIDTH 828 0
DWIDTH 23 0
BBX 22 20 1 0
BITMAP
100000
7C0180
C60380
060300
0E0700
1C0600
060C00
061C00
C61800
7C3800
3030F0
0061F8
00E188
00C188
01C0F8
0181F8
03010C
03010C
060198
0E00F8
ENDCHAR
STARTCHAR 215D
ENCODING 8541
SWIDTH 864 0
DWIDTH 24 0
BBX 23 20 1 0
BITMAP
FE0000
FE01C0
C00180
C00300
FC0300
C60600
060E00
C60C00
EE1800
7C1800
003078
0070FC
0060C4
00C0C4
00C07C
01807C
038086
0300C6
0600CE
06007C
ENDCHAR
STARTCHAR 215E
ENCODING 8542
SWIDTH 900 0
DWIDTH 25 0
BBX 23 19 1 0
BITMAP
FE01C0
060180
0C0300
0C0300
180600
180E00
100C00
301800
201800
003038
00707C
0060C6
00C0C6
00C07C
01807C
0380C6
0300C6
0600EE
06007C
ENDCHAR
STARTCHAR 2212
ENCODING 8722
SWIDTH 576 0
DWIDTH 16 0
BBX 11 2 3 8
BITMAP
FFE0
FFE0
ENDCHAR
STARTCHAR 2215
ENCODING 8725
SWIDTH 504 0
DWIDTH 14 0
BBX 11 19 2 0
BITMAP
0060
00E0
00C0
01C0
0180
0380
0300
0700
0600
0E00
0C00
1C00
1800
3800
3000
7000
6000
E000
C000
ENDCHAR
STARTCHAR 2248
ENCODING 8776
SWIDTH 540 0
DWIDTH 15 0
BBX 10 9 3 4
BITMAP
78C0
FF80
8700
0000
0000
0000
78C0
CF80
8300
ENDCHAR
STARTCHAR 2260
ENCODING 8800
SWIDTH 720 0
DWIDTH 20 0
BBX 13 17 4 0
BITMAP
0070
0060
00E0
00C0
FFF8
FFF8
0300
0700
0600
0C00
FFF8
FFF8
3800
3000
7000
6000
C000
ENDCHAR
STARTCHAR 2264
ENCODING 8804
SWIDTH 576 0
DWIDTH 16 0
BBX 12 17 3 0
BITMAP
0020
00E0
03E0
0780
1E00
7800
6000
7800
1E00
0780
01E0
00E0
0020
0000
0000
FFF0
FFF0
ENDCHAR
STARTCHAR 2265
ENCODING 8805
SWIDTH 612 0
DWIDTH 17 0
BBX 12 16 3 1
BITMAP
6000
7800
1E00
0780
01E0
00E0
03C0
0F80
1E00
7800
6000
0000
0000
0000
FFF0
FFF0
ENDCHAR
ENDFONT
